<svg width="52" height="52" viewBox="0 0 52 52" fill="none" xmlns="http://www.w3.org/2000/svg">
<path d="M25.9998 13.9289C25.9998 17.1304 24.728 20.2008 22.4642 22.4646C20.2003 24.7285 17.1299 26.0003 13.9284 26.0003C10.7268 26.0003 7.65641 24.7285 5.39257 22.4646C3.12874 20.2008 1.85693 17.1304 1.85693 13.9289C1.85693 10.7273 3.12874 7.65689 5.39257 5.39306C7.65641 3.12923 10.7268 1.85742 13.9284 1.85742C17.1299 1.85742 20.2003 3.12923 22.4642 5.39306C24.728 7.65689 25.9998 10.7273 25.9998 13.9289ZM14.8569 6.50028C14.8569 6.25401 14.7591 6.01782 14.585 5.84368C14.4108 5.66954 14.1746 5.57171 13.9284 5.57171C13.6821 5.57171 13.4459 5.66954 13.2718 5.84368C13.0976 6.01782 12.9998 6.25401 12.9998 6.50028V13.0003H6.49979C6.25352 13.0003 6.01733 13.0981 5.84319 13.2723C5.66905 13.4464 5.57122 13.6826 5.57122 13.9289C5.57122 14.1751 5.66905 14.4113 5.84319 14.5855C6.01733 14.7596 6.25352 14.8574 6.49979 14.8574H12.9998V21.3574C12.9998 21.6037 13.0976 21.8399 13.2718 22.014C13.4459 22.1882 13.6821 22.286 13.9284 22.286C14.1746 22.286 14.4108 22.1882 14.585 22.014C14.7591 21.8399 14.8569 21.6037 14.8569 21.3574V14.8574H21.3569C21.6032 14.8574 21.8394 14.7596 22.0135 14.5855C22.1877 14.4113 22.2855 14.1751 22.2855 13.9289C22.2855 13.6826 22.1877 13.4464 22.0135 13.2723C21.8394 13.0981 21.6032 13.0003 21.3569 13.0003H14.8569V6.50028ZM39.4641 8.35742H26.6981C26.2655 7.36897 25.7196 6.43413 25.0712 5.57171H39.4622C40.3769 5.57146 41.2827 5.75142 42.1279 6.1013C42.9731 6.45118 43.741 6.96412 44.3879 7.61084C45.0348 8.25756 45.548 9.02538 45.8981 9.87045C46.2482 10.7155 46.4284 11.6213 46.4284 12.536V39.4646C46.4284 41.3116 45.6946 43.083 44.3886 44.3891C43.0825 45.6951 41.3111 46.4289 39.4641 46.4289H12.5355C10.6885 46.4289 8.91707 45.6951 7.61101 44.3891C6.30495 43.083 5.57122 41.3116 5.57122 39.4646V25.0717C6.43365 25.7201 7.36849 26.266 8.35693 26.6986V39.4646C8.35693 40.135 8.51479 40.7683 8.79522 41.331L23.4035 27.0533C24.0975 26.375 25.0294 25.9952 25.9998 25.9952C26.9702 25.9952 27.9021 26.375 28.5961 27.0533L43.2044 41.331C43.4925 40.751 43.6425 40.1122 43.6427 39.4646V12.536C43.6427 11.4278 43.2024 10.3649 42.4188 9.5813C41.6351 8.79766 40.5723 8.35742 39.4641 8.35742ZM41.1987 43.2661L26.6498 29.046C26.4763 28.8764 26.2433 28.7815 26.0007 28.7815C25.7581 28.7815 25.5251 28.8764 25.3516 29.046L10.8009 43.2661C11.3302 43.5076 11.9171 43.6431 12.5374 43.6431H39.4659C40.0844 43.6431 40.6712 43.5076 41.1987 43.2661ZM34.3569 23.2146C35.5883 23.2146 36.7692 22.7254 37.6399 21.8547C38.5106 20.984 38.9998 19.8031 38.9998 18.5717C38.9998 17.3403 38.5106 16.1594 37.6399 15.2887C36.7692 14.418 35.5883 13.9289 34.3569 13.9289C33.1256 13.9289 31.9446 14.418 31.0739 15.2887C30.2032 16.1594 29.7141 17.3403 29.7141 18.5717C29.7141 19.8031 30.2032 20.984 31.0739 21.8547C31.9446 22.7254 33.1256 23.2146 34.3569 23.2146ZM34.3569 20.4289C33.8644 20.4289 33.392 20.2332 33.0437 19.8849C32.6955 19.5366 32.4998 19.0643 32.4998 18.5717C32.4998 18.0792 32.6955 17.6068 33.0437 17.2585C33.392 16.9102 33.8644 16.7146 34.3569 16.7146C34.8495 16.7146 35.3219 16.9102 35.6701 17.2585C36.0184 17.6068 36.2141 18.0792 36.2141 18.5717C36.2141 19.0643 36.0184 19.5366 35.6701 19.8849C35.3219 20.2332 34.8495 20.4289 34.3569 20.4289Z" fill="#8A8A8A"/>
</svg>
