<svg width="55" height="55" viewBox="0 0 55 55" fill="none" xmlns="http://www.w3.org/2000/svg">
<g clip-path="url(#clip0_1025_431)">
<path d="M29.0274 28.7982C28.7411 29.0827 28.3539 29.2425 27.9503 29.2425C27.5467 29.2425 27.1594 29.0827 26.8732 28.7982L22.2899 24.2149C21.6357 25.1875 21.2751 26.3277 21.251 27.4996C21.251 28.7354 21.6175 29.9436 22.3041 30.9711C22.9907 31.9987 23.9666 32.7996 25.1083 33.2726C26.2501 33.7455 27.5065 33.8692 28.7186 33.6281C29.9307 33.387 31.0441 32.7919 31.918 31.918C32.7919 31.0441 33.387 29.9307 33.6281 28.7186C33.8692 27.5065 33.7455 26.2501 33.2726 25.1083C32.7996 23.9666 31.9987 22.9907 30.9711 22.3041C29.9436 21.6175 28.7354 21.251 27.4996 21.251C26.4249 21.2575 25.3709 21.5474 24.444 22.0913L29.0274 26.6746C29.3027 26.9595 29.4567 27.3402 29.4567 27.7364C29.4567 28.1326 29.3027 28.5133 29.0274 28.7982Z" fill="#17223B"/>
<path d="M27.5004 3.05568C25.3054 3.06325 23.1214 3.36644 21.0074 3.95706L23.4518 9.90012C27.3004 9.00075 31.3372 9.38106 34.95 10.9834C38.5629 12.5857 41.5546 15.3225 43.4714 18.7788C45.3882 22.2351 46.1255 26.2222 45.5714 30.1354C45.0173 34.0486 43.2022 37.6743 40.4012 40.4626C37.6003 43.2509 33.9664 45.0497 30.0507 45.586C26.135 46.1224 22.1513 45.3671 18.7037 43.4347C15.2561 41.5022 12.5328 38.4982 10.9469 34.8781C9.36098 31.2581 8.99894 27.2195 9.91571 23.3751L3.98794 20.9001C2.60537 25.8306 2.80606 31.0707 4.56169 35.881C6.31732 40.6912 9.53923 44.8287 13.7727 47.7095C18.0062 50.5902 23.0374 52.0687 28.1563 51.9364C33.2752 51.804 38.2233 50.0675 42.3023 46.9718C46.3812 43.8762 49.385 39.5778 50.8898 34.6832C52.3945 29.7886 52.3241 24.5451 50.6886 19.6927C49.0531 14.8403 45.9351 10.624 41.7745 7.63888C37.614 4.65379 32.6211 3.05063 27.5004 3.05568Z" fill="#17223B"/>
<path d="M12.2226 24.3526C11.554 27.6205 11.9547 31.0169 13.3657 34.0394C14.7766 37.0619 17.1227 39.5501 20.0572 41.1361C22.9916 42.722 26.3586 43.3216 29.6601 42.846C32.9617 42.3704 36.0225 40.8449 38.39 38.4952C40.7575 36.1454 42.3059 33.0962 42.8064 29.7983C43.3068 26.5004 42.7327 23.1291 41.1688 20.1828C39.605 17.2365 37.1345 14.8716 34.1227 13.438C31.1109 12.0044 27.7177 11.578 24.4448 12.2221L27.0268 18.5012H27.5004C29.2765 18.5012 31.0127 19.0277 32.4897 20.0141C33.9666 21.0006 35.1181 22.4027 35.7984 24.0433C36.4788 25.6839 36.6576 27.4893 36.3122 29.2315C35.9668 30.9737 35.1128 32.5744 33.8579 33.8313C32.6031 35.0883 31.0039 35.9451 29.2623 36.2934C27.5207 36.6418 25.7149 36.466 24.0732 35.7885C22.4314 35.1109 21.0274 33.9618 20.0384 32.4865C19.0495 31.0112 18.5201 29.2759 18.5171 27.4998V26.9651L12.2226 24.3526Z" fill="#17223B"/>
<path d="M12.5277 20.3806C12.6687 20.5245 12.8609 20.6069 13.0624 20.6098H18.6388L22.2291 24.2001C22.782 23.325 23.5431 22.6007 24.4443 22.0917L20.6707 18.3334V13.0014C20.6679 12.8 20.5855 12.6078 20.4416 12.4667L11.9013 3.92644C11.7945 3.82176 11.6594 3.75071 11.5126 3.72211C11.3658 3.69351 11.2139 3.70861 11.0756 3.76555C10.9374 3.82248 10.8189 3.91874 10.7348 4.04239C10.6507 4.16605 10.6048 4.31165 10.6027 4.46117V10.5723H4.58324C4.43372 10.5744 4.28812 10.6203 4.16446 10.7044C4.04081 10.7885 3.94455 10.907 3.88762 11.0452C3.83068 11.1835 3.81558 11.3354 3.84418 11.4822C3.87278 11.629 3.94383 11.7641 4.04852 11.8709L12.5277 20.3806Z" fill="#17223B"/>
</g>
<defs>
<clipPath id="clip0_1025_431">
<rect width="55" height="55" fill="white"/>
</clipPath>
</defs>
</svg>
