<svg width="40" height="40" viewBox="0 0 40 40" fill="none" xmlns="http://www.w3.org/2000/svg">
<path d="M11.6666 33.3337C10.7499 33.3337 9.96547 33.0075 9.31325 32.3553C8.66103 31.7031 8.33436 30.9181 8.33325 30.0003V14.5837L3.95825 9.41699C3.81936 9.25033 3.72214 9.07699 3.66659 8.89699C3.61103 8.71699 3.58325 8.52921 3.58325 8.33366C3.58325 7.88921 3.73603 7.50033 4.04159 7.16699C4.34714 6.83366 4.74992 6.66699 5.24992 6.66699H33.3333C34.2499 6.66699 35.0349 6.99366 35.6883 7.64699C36.3416 8.30033 36.6677 9.08477 36.6666 10.0003V30.0003C36.6666 30.917 36.3405 31.702 35.6883 32.3553C35.036 33.0087 34.251 33.3348 33.3333 33.3337H11.6666ZM22.9999 25.0003H28.3333C28.8055 25.0003 29.2016 24.8403 29.5216 24.5203C29.8416 24.2003 30.001 23.8048 29.9999 23.3337C29.9988 22.8625 29.8388 22.467 29.5199 22.147C29.201 21.827 28.8055 21.667 28.3333 21.667H19.0416C18.2916 21.667 17.771 22.0075 17.4799 22.6887C17.1888 23.3698 17.3066 23.9737 17.8333 24.5003L21.3333 28.0003C21.6388 28.3059 22.0277 28.4587 22.4999 28.4587C22.9721 28.4587 23.361 28.3059 23.6666 28.0003C23.9721 27.6948 24.1249 27.3059 24.1249 26.8337C24.1249 26.3614 23.9721 25.9725 23.6666 25.667L22.9999 25.0003ZM21.9999 15.0003H16.6666C16.1944 15.0003 15.7988 15.1603 15.4799 15.4803C15.161 15.8003 15.001 16.1959 14.9999 16.667C14.9988 17.1381 15.1588 17.5342 15.4799 17.8553C15.801 18.1764 16.1966 18.3359 16.6666 18.3337H25.9583C26.7083 18.3337 27.2294 17.9937 27.5216 17.3137C27.8138 16.6337 27.6955 16.0292 27.1666 15.5003L23.6666 12.0003C23.361 11.6948 22.9721 11.542 22.4999 11.542C22.0277 11.542 21.6388 11.6948 21.3333 12.0003C21.0277 12.3059 20.8749 12.6948 20.8749 13.167C20.8749 13.6392 21.0277 14.0281 21.3333 14.3337L21.9999 15.0003Z" fill="#17223B"/>
</svg>
