<svg width="36" height="36" viewBox="0 0 36 36" fill="none" xmlns="http://www.w3.org/2000/svg">
<g clip-path="url(#clip0_927_338)">
<path fill-rule="evenodd" clip-rule="evenodd" d="M18 36C22.7739 36 27.3523 34.1036 30.7279 30.7279C34.1036 27.3523 36 22.7739 36 18C36 13.2261 34.1036 8.64773 30.7279 5.27208C27.3523 1.89642 22.7739 0 18 0C13.2261 0 8.64773 1.89642 5.27208 5.27208C1.89642 8.64773 0 13.2261 0 18C0 22.7739 1.89642 27.3523 5.27208 30.7279C8.64773 34.1036 13.2261 36 18 36ZM12.84 9.66C12.4135 9.26256 11.8493 9.04619 11.2664 9.05647C10.6835 9.06676 10.1274 9.3029 9.71513 9.71513C9.3029 10.1274 9.06676 10.6835 9.05647 11.2664C9.04619 11.8493 9.26256 12.4135 9.66 12.84L23.16 26.34C23.5865 26.7374 24.1507 26.9538 24.7336 26.9435C25.3165 26.9332 25.8726 26.6971 26.2849 26.2849C26.6971 25.8726 26.9332 25.3165 26.9435 24.7336C26.9538 24.1507 26.7374 23.5865 26.34 23.16L12.84 9.66Z" fill="#ED1F24"/>
</g>
<defs>
<clipPath id="clip0_927_338">
<rect width="36" height="36" fill="white"/>
</clipPath>
</defs>
</svg>
