<svg width="33" height="33" viewBox="0 0 33 33" fill="none" xmlns="http://www.w3.org/2000/svg">
<path d="M2.40466 26.1619L15.0481 3.05971C15.1904 2.79898 15.4004 2.5814 15.6559 2.42982C15.9114 2.27823 16.203 2.19824 16.5001 2.19824C16.7971 2.19824 17.0887 2.27823 17.3442 2.42982C17.5997 2.5814 17.8097 2.79898 17.9521 3.05971L30.5955 26.1619C30.7331 26.4135 30.8028 26.6967 30.7977 26.9834C30.7926 27.2702 30.7128 27.5507 30.5662 27.7972C30.4196 28.0437 30.2113 28.2478 29.9618 28.3892C29.7123 28.5307 29.4303 28.6047 29.1435 28.6039H3.85666C3.56985 28.6047 3.28779 28.5307 3.0383 28.3892C2.7888 28.2478 2.5805 28.0437 2.43391 27.7972C2.28733 27.5507 2.20754 27.2702 2.20241 26.9834C2.19728 26.6967 2.26699 26.4135 2.40466 26.1619ZM18.2601 17.5995L19.1467 12.2799C19.1728 12.1224 19.1644 11.9611 19.122 11.8071C19.0795 11.6532 19.0041 11.5104 18.9009 11.3885C18.7977 11.2667 18.6692 11.1688 18.5243 11.1016C18.3795 11.0344 18.2217 10.9996 18.0621 10.9995H14.9381C14.7784 10.9996 14.6206 11.0344 14.4758 11.1016C14.3309 11.1688 14.2024 11.2667 14.0992 11.3885C13.996 11.5104 13.9206 11.6532 13.8781 11.8071C13.8357 11.9611 13.8273 12.1224 13.8535 12.2799L14.7401 17.5995H18.2601ZM18.9201 21.7795C18.9201 21.1377 18.6651 20.5222 18.2113 20.0683C17.7574 19.6145 17.1419 19.3595 16.5001 19.3595C15.8582 19.3595 15.2427 19.6145 14.7889 20.0683C14.335 20.5222 14.0801 21.1377 14.0801 21.7795C14.0801 22.4213 14.335 23.0369 14.7889 23.4907C15.2427 23.9445 15.8582 24.1995 16.5001 24.1995C17.1419 24.1995 17.7574 23.9445 18.2113 23.4907C18.6651 23.0369 18.9201 22.4213 18.9201 21.7795Z" fill="#ED1F24"/>
</svg>
