<svg width="38" height="38" viewBox="0 0 38 38" fill="none" xmlns="http://www.w3.org/2000/svg">
<path d="M4.75 8.31255C4.43506 8.31255 4.13301 8.43766 3.91031 8.66036C3.68761 8.88306 3.5625 9.18511 3.5625 9.50005C3.5625 9.81499 3.68761 10.117 3.91031 10.3397C4.13301 10.5624 4.43506 10.6876 4.75 10.6876H7.38625L10.5022 23.1563C10.7671 24.2132 11.7135 24.9375 12.8024 24.9375H27.6106C28.6829 24.9375 29.5937 24.2251 29.8751 23.1919L32.9531 11.8751H30.4665L27.6094 22.5625H12.8012L9.68644 10.0938C9.55777 9.58226 9.26116 9.12869 8.84412 8.80574C8.42707 8.48278 7.91371 8.30911 7.38625 8.31255H4.75ZM26.125 24.9375C24.1716 24.9375 22.5625 26.5466 22.5625 28.5C22.5625 30.4535 24.1716 32.0625 26.125 32.0625C28.0784 32.0625 29.6875 30.4535 29.6875 28.5C29.6875 26.5466 28.0784 24.9375 26.125 24.9375ZM15.4375 24.9375C13.4841 24.9375 11.875 26.5466 11.875 28.5C11.875 30.4535 13.4841 32.0625 15.4375 32.0625C17.3909 32.0625 19 30.4535 19 28.5C19 26.5466 17.3909 24.9375 15.4375 24.9375ZM19 8.31255V14.25H15.4375L20.1875 19L24.9375 14.25H21.375V8.31255H19ZM15.4375 27.3125C16.1073 27.3125 16.625 27.8303 16.625 28.5C16.625 29.1698 16.1073 29.6875 15.4375 29.6875C14.7677 29.6875 14.25 29.1698 14.25 28.5C14.25 27.8303 14.7677 27.3125 15.4375 27.3125ZM26.125 27.3125C26.7948 27.3125 27.3125 27.8303 27.3125 28.5C27.3125 29.1698 26.7948 29.6875 26.125 29.6875C25.4552 29.6875 24.9375 29.1698 24.9375 28.5C24.9375 27.8303 25.4552 27.3125 26.125 27.3125Z" fill="#17223B"/>
</svg>
