<svg width="30" height="30" viewBox="0 0 30 30" fill="none" xmlns="http://www.w3.org/2000/svg">
<path d="M30 20.1562C30 23.0039 28.4189 25.3125 25.3125 25.3125H4.6875C1.58109 25.3125 0 23.0039 0 20.1562V9.84375C0 6.99609 1.58109 4.6875 4.6875 4.6875H25.3125C28.4189 4.6875 30 6.99609 30 9.84375V20.1562Z" fill="#EC1C24"/>
<path d="M6.07996 7.80738L7.08262 9.84363L9.33027 10.1694L7.70512 11.7514L8.08809 13.9921L6.07996 12.935L4.07137 13.9921L4.4548 11.7514L2.83105 10.1694L5.07496 9.84363L6.07996 7.80738ZM9.61246 6.09082L9.89043 6.65566L10.5157 6.74613L10.0643 7.18629L10.1698 7.80738L9.61246 7.51395L9.05559 7.80738L9.16105 7.18629L8.71012 6.74613L9.33402 6.65566L9.61246 6.09082ZM11.4176 8.12238L11.6961 8.68676L12.3186 8.7777L11.869 9.21879L11.975 9.83895L11.4176 9.54598L10.8607 9.83895L10.9662 9.21879L10.5157 8.7777L11.1387 8.68676L11.4176 8.12238ZM11.4176 11.383L11.6961 11.9488L12.3186 12.0393L11.869 12.4794L11.975 13.1005L11.4176 12.808L10.8607 13.1005L10.9662 12.4794L10.5157 12.0393L11.1387 11.9488L11.4176 11.383ZM9.61246 13.6733L9.89043 14.2382L10.5157 14.3282L10.0643 14.7679L10.1698 15.3899L9.61246 15.0983L9.05559 15.3899L9.16105 14.7679L8.71012 14.3282L9.33402 14.2382L9.61246 13.6733Z" fill="#F9CB38"/>
</svg>
