<svg width="40" height="40" viewBox="0 0 40 40" fill="none" xmlns="http://www.w3.org/2000/svg">
<path d="M20 29C18.9944 29.0002 18.0256 28.6216 17.2865 27.9397C16.5475 27.2577 16.0924 26.3224 16.012 25.32C13.3444 24.3758 11.0961 22.5194 9.66405 20.0787C8.23199 17.638 7.70824 14.7699 8.18525 11.9805C8.66226 9.19121 10.1093 6.66009 12.2711 4.83396C14.4328 3.00783 17.1702 2.00412 20 2C23.0098 1.99956 25.9098 3.13017 28.1251 5.16765C30.3404 7.20513 31.7092 10.0007 31.96 13C31.9684 13.1301 31.9496 13.2605 31.9048 13.383C31.8601 13.5054 31.7903 13.6172 31.7 13.7112C31.6098 13.8053 31.5009 13.8795 31.3804 13.9292C31.2599 13.9789 31.1303 14.003 31 14C30.7321 13.9933 30.4763 13.8872 30.2822 13.7024C30.0882 13.5176 29.9698 13.2672 29.95 13C29.7719 11.2317 29.1257 9.54276 28.078 8.10714C27.0302 6.67153 25.6188 5.54108 23.9891 4.83217C22.3593 4.12327 20.57 3.86153 18.8055 4.07389C17.0409 4.28625 15.3649 4.96505 13.9498 6.0404C12.5348 7.11575 11.4319 8.54879 10.7547 10.192C10.0775 11.8352 9.8505 13.6292 10.097 15.3893C10.3435 17.1494 11.0547 18.812 12.1573 20.2059C13.2598 21.5999 14.714 22.6748 16.37 23.32C16.6713 22.6689 17.1422 22.1108 17.7333 21.7043C18.3245 21.2977 19.0141 21.0576 19.7299 21.0091C20.4457 20.9607 21.1613 21.1056 21.8019 21.4288C22.4424 21.7519 22.9842 22.2414 23.3706 22.846C23.7569 23.4505 23.9736 24.1478 23.9978 24.8649C24.0221 25.5819 23.853 26.2922 23.5084 26.9215C23.1637 27.5507 22.6562 28.0757 22.0389 28.4414C21.4217 28.8071 20.7174 29 20 29ZM10.018 24H10.2C11.3807 25.1582 12.7573 26.0981 14.266 26.776C14.7094 28.2389 15.6944 29.4774 17.0199 30.2387C18.3455 30.9999 19.9116 31.2266 21.3986 30.8723C22.8856 30.5181 24.1813 29.6096 25.0212 28.3324C25.8611 27.0552 26.1819 25.5057 25.918 24H30C31.0609 24 32.0783 24.4214 32.8284 25.1716C33.5786 25.9217 34 26.9391 34 28C34 31.382 32.334 33.932 29.73 35.594C27.166 37.228 23.71 38 20 38C16.29 38 12.834 37.228 10.27 35.594C7.666 33.934 6 31.38 6 28C6 25.774 7.806 24 10.018 24ZM28 14C28.0004 15.3533 27.6576 16.6845 27.0035 17.8693C26.3494 19.054 25.4055 20.0534 24.26 20.774C23.7022 20.2118 23.0385 19.7656 22.3074 19.4611C21.5762 19.1566 20.792 18.9999 20 19C19.208 18.9999 18.4238 19.1566 17.6926 19.4611C16.9615 19.7656 16.2978 20.2118 15.74 20.774C14.2208 19.8186 13.067 18.3802 12.464 16.69C12.1564 15.8265 11.9994 14.9166 12 14C12 11.8783 12.8429 9.84344 14.3431 8.34315C15.8434 6.84285 17.8783 6 20 6C22.1217 6 24.1566 6.84285 25.6569 8.34315C27.1571 9.84344 28 11.8783 28 14Z" fill="#17223B"/>
</svg>
