<svg width="84" height="83" viewBox="0 0 84 83" fill="none" xmlns="http://www.w3.org/2000/svg">
<path d="M48.2476 82.288C68.0929 79.3015 83.3101 62.1786 83.3101 41.5C83.3101 18.7176 64.8424 0.25 42.0601 0.25C19.2777 0.25 0.810059 18.7176 0.810059 41.5C0.810059 62.1786 16.0272 79.3056 35.8726 82.288V53.875H29.6851C28.044 53.875 26.4702 53.2231 25.3098 52.0627C24.1495 50.9023 23.4976 49.3285 23.4976 47.6875C23.4976 46.0465 24.1495 44.4727 25.3098 43.3123C26.4702 42.1519 28.044 41.5 29.6851 41.5H35.8726V33.25C35.8726 29.4209 37.3937 25.7487 40.1012 23.0411C42.8088 20.3336 46.481 18.8125 50.3101 18.8125H52.3726C54.0136 18.8125 55.5874 19.4644 56.7478 20.6248C57.9082 21.7852 58.5601 23.359 58.5601 25C58.5601 26.641 57.9082 28.2148 56.7478 29.3752C55.5874 30.5356 54.0136 31.1875 52.3726 31.1875H50.3101C49.7631 31.1875 49.2384 31.4048 48.8517 31.7916C48.4649 32.1784 48.2476 32.703 48.2476 33.25V41.5H54.4351C56.0761 41.5 57.6499 42.1519 58.8103 43.3123C59.9707 44.4727 60.6226 46.0465 60.6226 47.6875C60.6226 49.3285 59.9707 50.9023 58.8103 52.0627C57.6499 53.2231 56.0761 53.875 54.4351 53.875H48.2476V82.288Z" fill="black"/>
</svg>
