<svg width="57" height="47" viewBox="0 0 57 47" fill="none" xmlns="http://www.w3.org/2000/svg">
<path d="M0.541504 0.625V46.375H56.4582V0.625H0.541504ZM10.7082 15.875H22.1457V20.9583H10.7082V15.875ZM10.7082 26.0417H22.1457V31.125H10.7082V26.0417ZM43.7498 18.4167C43.7498 19.5666 43.4378 20.695 42.8469 21.6815C42.2561 22.668 41.4086 23.4757 40.3948 24.0185C42.1213 24.6368 43.6146 25.7735 44.6701 27.2731C45.7257 28.7728 46.292 30.562 46.2915 32.3958V34.9375H28.4998V32.3958C28.4998 28.535 30.9576 25.2512 34.3965 24.0185C33.4056 23.488 32.5731 22.7041 31.984 21.7468C31.3949 20.7895 31.0703 19.6931 31.0433 18.5694C31.0163 17.4457 31.2879 16.3349 31.8303 15.3504C32.3727 14.3659 33.1665 13.5429 34.1308 12.9654C35.0951 12.3879 36.1954 12.0765 37.3193 12.063C38.4433 12.0495 39.5507 12.3343 40.5286 12.8885C41.5065 13.4427 42.3199 14.2464 42.8858 15.2176C43.4517 16.1887 43.7498 17.2926 43.7498 18.4167Z" fill="#17223B"/>
</svg>
