<svg width="73" height="54" viewBox="0 0 73 54" fill="none" xmlns="http://www.w3.org/2000/svg">
<path d="M72.5601 7.37078V49.0978C72.5601 51.8098 70.3641 54.0058 67.6521 54.0058H56.1951V26.1898L36.5601 40.9198L16.9251 26.1898V54.0088H5.46806C4.82328 54.0088 4.18482 53.8817 3.58916 53.6349C2.99349 53.3881 2.45231 53.0263 1.99652 52.5702C1.54073 52.1141 1.17927 51.5727 0.932797 50.9769C0.686324 50.3811 0.559665 49.7426 0.56006 49.0978V7.37078C0.56006 1.30178 7.48706 -2.16322 12.3411 1.47878L16.9251 4.91978L36.5601 19.6438L56.1951 4.91378L60.7791 1.47878C65.6301 -2.16022 72.5601 1.30178 72.5601 7.37078Z" fill="black"/>
</svg>
