<svg width="38" height="38" viewBox="0 0 38 38" fill="none" xmlns="http://www.w3.org/2000/svg">
<path d="M27.5499 3.7998C27.298 3.7998 27.0563 3.89989 26.8782 4.07805C26.7 4.25621 26.5999 4.49785 26.5999 4.7498C26.5999 5.00176 26.7 5.2434 26.8782 5.42156C27.0563 5.59972 27.298 5.6998 27.5499 5.6998H30.9566L21.8499 14.8065L16.8225 9.7772C16.7343 9.68873 16.6294 9.61854 16.514 9.57065C16.3986 9.52276 16.2749 9.49811 16.1499 9.49811C16.025 9.49811 15.9012 9.52276 15.7858 9.57065C15.6704 9.61854 15.5656 9.68873 15.4773 9.7772L5.97733 19.2772C5.79895 19.4556 5.69873 19.6975 5.69873 19.9498C5.69873 20.2021 5.79895 20.444 5.97733 20.6224C6.15571 20.8008 6.39766 20.901 6.64993 20.901C6.9022 20.901 7.14415 20.8008 7.32253 20.6224L16.1499 11.7931L21.1773 16.8224C21.2656 16.9109 21.3704 16.9811 21.4858 17.029C21.6012 17.0768 21.725 17.1015 21.8499 17.1015C21.9749 17.1015 22.0986 17.0768 22.214 17.029C22.3294 16.9811 22.4343 16.9109 22.5225 16.8224L32.2999 7.0431V10.4498C32.2999 10.7018 32.4 10.9434 32.5782 11.1216C32.7563 11.2997 32.998 11.3998 33.2499 11.3998C33.5019 11.3998 33.7435 11.2997 33.9217 11.1216C34.0998 10.9434 34.1999 10.7018 34.1999 10.4498V4.7498C34.1999 4.49785 34.0998 4.25621 33.9217 4.07805C33.7435 3.89989 33.5019 3.7998 33.2499 3.7998H27.5499ZM29.4499 17.0998C29.198 17.0998 28.9563 17.1999 28.7782 17.3781C28.6 17.5562 28.4999 17.7978 28.4999 18.0498V33.2498C28.4999 33.5018 28.6 33.7434 28.7782 33.9216C28.9563 34.0997 29.198 34.1998 29.4499 34.1998C29.7019 34.1998 29.9435 34.0997 30.1217 33.9216C30.2998 33.7434 30.3999 33.5018 30.3999 33.2498V18.0498C30.3999 17.7978 30.2998 17.5562 30.1217 17.3781C29.9435 17.1999 29.7019 17.0998 29.4499 17.0998ZM14.2499 20.8998C13.998 20.8998 13.7563 20.9999 13.5782 21.1781C13.4 21.3562 13.2999 21.5978 13.2999 21.8498V33.2498C13.2999 33.5018 13.4 33.7434 13.5782 33.9216C13.7563 34.0997 13.998 34.1998 14.2499 34.1998C14.5019 34.1998 14.7435 34.0997 14.9217 33.9216C15.0998 33.7434 15.1999 33.5018 15.1999 33.2498V21.8498C15.1999 21.5978 15.0998 21.3562 14.9217 21.1781C14.7435 20.9999 14.5019 20.8998 14.2499 20.8998ZM20.8999 25.6498C20.8999 25.3978 21 25.1562 21.1782 24.9781C21.3563 24.7999 21.598 24.6998 21.8499 24.6998C22.1019 24.6998 22.3435 24.7999 22.5217 24.9781C22.6998 25.1562 22.7999 25.3978 22.7999 25.6498V33.2498C22.7999 33.5018 22.6998 33.7434 22.5217 33.9216C22.3435 34.0997 22.1019 34.1998 21.8499 34.1998C21.598 34.1998 21.3563 34.0997 21.1782 33.9216C21 33.7434 20.8999 33.5018 20.8999 33.2498V25.6498ZM5.69993 27.5498C5.69993 27.2978 5.80002 27.0562 5.97818 26.8781C6.15634 26.6999 6.39797 26.5998 6.64993 26.5998C6.90189 26.5998 7.14352 26.6999 7.32168 26.8781C7.49984 27.0562 7.59993 27.2978 7.59993 27.5498V33.2498C7.59993 33.5018 7.49984 33.7434 7.32168 33.9216C7.14352 34.0997 6.90189 34.1998 6.64993 34.1998C6.39797 34.1998 6.15634 34.0997 5.97818 33.9216C5.80002 33.7434 5.69993 33.5018 5.69993 33.2498V27.5498Z" fill="#17223B"/>
</svg>
