<svg width="80" height="80" viewBox="0 0 80 80" fill="none" xmlns="http://www.w3.org/2000/svg">
<path fill-rule="evenodd" clip-rule="evenodd" d="M76.4377 21.7105C75.6692 21.9931 74.8382 22.0462 74.0414 21.8637C73.2446 21.6812 72.5147 21.2706 71.9367 20.6797L68.7636 17.422L44.6376 42.1457C44.2372 42.5563 43.7618 42.882 43.2386 43.1042C42.7153 43.3264 42.1545 43.4408 41.5881 43.4408C41.0217 43.4408 40.4608 43.3264 39.9376 43.1042C39.4143 42.882 38.9389 42.5563 38.5385 42.1457L29.3353 32.7146L7.41094 55.1821C7.01304 55.6038 6.53715 55.9402 6.01105 56.1715C5.48495 56.4028 4.91917 56.5244 4.34672 56.5292C3.77427 56.534 3.20661 56.4219 2.67687 56.1995C2.14713 55.9771 1.66592 55.6489 1.26131 55.2338C0.856707 54.8188 0.536807 54.3254 0.320281 53.7823C0.103755 53.2392 -0.0050617 52.6574 0.000180798 52.0708C0.00542329 51.4842 0.12462 50.9045 0.350815 50.3656C0.577011 49.8266 0.905675 49.3393 1.31763 48.9319L26.2772 23.3364C26.6776 22.9258 27.153 22.6002 27.6762 22.3779C28.1995 22.1557 28.7603 22.0414 29.3267 22.0414C29.8931 22.0414 30.454 22.1557 30.9772 22.3779C31.5005 22.6002 31.9759 22.9258 32.3762 23.3364L41.5852 32.7735L62.6646 11.1719L59.4915 7.92018C58.9136 7.32877 58.5116 6.58134 58.3322 5.7649C58.1527 4.94845 58.2033 4.09657 58.4779 3.30841C58.7525 2.52025 59.24 1.82824 59.8835 1.31293C60.527 0.79762 61.3 0.480203 62.1127 0.397629C67.361 -0.132543 70.3789 -0.132543 75.4318 0.397629C76.4179 0.502115 77.3387 0.951667 78.0392 1.67057C78.7396 2.38946 79.177 3.33378 79.2775 4.34447C79.8006 9.51659 79.7948 12.6151 79.2775 17.9876C79.1966 18.82 78.8868 19.6117 78.3841 20.2708C77.8814 20.9299 77.2065 21.4291 76.4377 21.7105ZM67.1081 30.5939C67.7594 29.9466 68.5935 29.5264 69.4914 29.3932C70.3893 29.2599 71.3054 29.4203 72.1092 29.8516L77.6966 32.8559C78.4196 33.2459 79.0196 33.8383 79.4267 34.5641C79.8337 35.29 80.0312 36.1195 79.996 36.9559L78.4094 75.7645C78.3634 76.9043 77.889 77.9817 77.0854 78.7712C76.2818 79.5606 75.2113 80.001 74.0981 80H62.7623C62.3811 80 62.0156 79.8448 61.7461 79.5687C61.4766 79.2925 61.3252 78.9179 61.3252 78.5273V36.9618C61.3248 36.7641 61.3633 36.5683 61.4384 36.3861C61.5134 36.2039 61.6235 36.0391 61.7621 35.9015L67.1081 30.5939ZM54.1397 78.5273C54.1397 78.9179 53.9883 79.2925 53.7188 79.5687C53.4493 79.8448 53.0837 80 52.7026 80H31.1461C30.7649 80 30.3994 79.8448 30.1299 79.5687C29.8604 79.2925 29.709 78.9179 29.709 78.5273V44.2782C29.709 44.1604 29.7952 44.0661 29.9102 44.0779C30.8472 44.125 31.7669 44.4903 32.5257 45.1677L41.9818 53.674C42.253 53.9186 42.6041 54.0495 42.9652 54.0408C43.3263 54.032 43.6709 53.8843 43.9305 53.6269L51.7024 45.8982C51.9053 45.6966 52.1616 45.5609 52.4394 45.5078C52.7172 45.4548 53.0041 45.4869 53.2642 45.6C53.5243 45.7132 53.746 45.9024 53.9018 46.144C54.0575 46.3856 54.1402 46.6689 54.1397 46.9585V78.5273ZM20.0574 52.2367L2.17989 70.9458C1.38867 71.7711 0.944918 72.8816 0.943986 74.0385V75.5819C0.943986 78.0207 2.87545 80 5.25529 80H21.0864C21.4675 80 21.8331 79.8448 22.1026 79.5687C22.3721 79.2925 22.5235 78.9179 22.5235 78.5273V53.2676C22.524 52.9745 22.4392 52.6879 22.2799 52.4444C22.1206 52.201 21.894 52.0118 21.6292 51.9011C21.3644 51.7904 21.0733 51.7632 20.7933 51.823C20.5133 51.8828 20.2571 52.0268 20.0574 52.2367Z" fill="#F7A21B"/>
</svg>
