<svg width="40" height="40" viewBox="0 0 40 40" fill="none" xmlns="http://www.w3.org/2000/svg">
<g clip-path="url(#clip0_901_302)">
<path fill-rule="evenodd" clip-rule="evenodd" d="M38.1229 11.2976C37.7409 11.4346 37.3279 11.4604 36.9319 11.3719C36.5358 11.2834 36.173 11.0842 35.8858 10.7976L34.3086 9.21758L22.3172 21.209C22.1182 21.4081 21.8819 21.5661 21.6218 21.6739C21.3618 21.7816 21.083 21.8371 20.8015 21.8371C20.52 21.8371 20.2412 21.7816 19.9811 21.6739C19.7211 21.5661 19.4848 21.4081 19.2858 21.209L14.7115 16.6347L3.81434 27.5319C3.61657 27.7364 3.38004 27.8996 3.11855 28.0117C2.85706 28.1239 2.57585 28.1829 2.29132 28.1852C2.00679 28.1876 1.72465 28.1332 1.46135 28.0254C1.19805 27.9175 0.958876 27.7583 0.757773 27.557C0.55667 27.3557 0.39767 27.1164 0.290049 26.853C0.182429 26.5896 0.128344 26.3074 0.130949 26.0228C0.133555 25.7383 0.192799 25.4572 0.305226 25.1958C0.417653 24.9344 0.58101 24.698 0.785765 24.5004L13.1915 12.0861C13.3905 11.887 13.6268 11.7291 13.8868 11.6213C14.1469 11.5135 14.4257 11.458 14.7072 11.458C14.9887 11.458 15.2675 11.5135 15.5275 11.6213C15.7876 11.7291 16.0239 11.887 16.2229 12.0861L20.8001 16.6633L31.2772 6.18615L29.7001 4.60901C29.4128 4.32216 29.213 3.95965 29.1238 3.56366C29.0347 3.16766 29.0598 2.75449 29.1963 2.37222C29.3328 1.98995 29.5751 1.65431 29.8949 1.40437C30.2147 1.15444 30.599 1.00049 31.0029 0.960435C33.6115 0.703292 35.1115 0.703292 37.6229 0.960435C38.113 1.01111 38.5707 1.22915 38.9189 1.57783C39.267 1.92651 39.4844 2.38452 39.5343 2.87472C39.7943 5.38329 39.7915 6.88615 39.5343 9.49186C39.4941 9.89559 39.3402 10.2796 39.0903 10.5993C38.8405 10.9189 38.505 11.1611 38.1229 11.2976ZM33.4858 15.6061C33.8095 15.2922 34.224 15.0884 34.6703 15.0238C35.1166 14.9592 35.572 15.037 35.9715 15.2462L38.7486 16.7033C39.108 16.8924 39.4062 17.1797 39.6085 17.5318C39.8108 17.8839 39.909 18.2862 39.8915 18.6919L39.1029 37.5147C39.08 38.0676 38.8442 38.5901 38.4448 38.973C38.0454 39.3559 37.5134 39.5695 36.96 39.569H31.3258C31.1363 39.569 30.9546 39.4938 30.8207 39.3598C30.6867 39.2258 30.6115 39.0442 30.6115 38.8547V18.6947C30.6113 18.5988 30.6304 18.5038 30.6677 18.4155C30.705 18.3271 30.7598 18.2472 30.8286 18.1804L33.4858 15.6061ZM27.04 38.8547C27.04 39.0442 26.9648 39.2258 26.8308 39.3598C26.6969 39.4938 26.5152 39.569 26.3258 39.569H15.6115C15.422 39.569 15.2404 39.4938 15.1064 39.3598C14.9724 39.2258 14.8972 39.0442 14.8972 38.8547V22.2433C14.8972 22.1861 14.9401 22.1404 14.9972 22.1462C15.4629 22.169 15.92 22.3461 16.2972 22.6747L20.9972 26.8004C21.132 26.919 21.3065 26.9826 21.4859 26.9783C21.6654 26.9741 21.8367 26.9024 21.9658 26.7776L25.8286 23.029C25.9295 22.9313 26.0569 22.8654 26.195 22.8397C26.333 22.814 26.4756 22.8295 26.6049 22.8844C26.7342 22.9393 26.8444 23.0311 26.9218 23.1483C26.9992 23.2654 27.0403 23.4028 27.04 23.5433V38.8547ZM10.1001 26.1033L1.21434 35.1776C0.821073 35.5779 0.600514 36.1164 0.600051 36.6776V37.4262C0.600051 38.609 1.56005 39.569 2.74291 39.569H10.6115C10.8009 39.569 10.9826 39.4938 11.1166 39.3598C11.2505 39.2258 11.3258 39.0442 11.3258 38.8547V26.6033C11.326 26.4611 11.2839 26.3221 11.2047 26.2041C11.1255 26.086 11.0129 25.9943 10.8813 25.9406C10.7496 25.8869 10.605 25.8737 10.4658 25.9027C10.3266 25.9316 10.1993 26.0015 10.1001 26.1033Z" fill="#17223B"/>
</g>
<defs>
<clipPath id="clip0_901_302">
<rect width="40" height="40" fill="white"/>
</clipPath>
</defs>
</svg>
