<svg width="60" height="50" viewBox="0 0 60 50" fill="none" xmlns="http://www.w3.org/2000/svg">
<path d="M30 0C38.2875 0 45 4.97222 45 11.1111C45 17.25 38.2875 22.2222 30 22.2222C21.7125 22.2222 15 17.25 15 11.1111C15 4.97222 21.7125 0 30 0ZM45 29.2778C45 32.2222 43.95 39.0833 36.7875 46.75L33.75 33.3333L37.275 28.1111C34.95 27.9167 32.5125 27.7778 30 27.7778C27.4875 27.7778 25.05 27.9167 22.725 28.1111L26.25 33.3333L23.2125 46.75C16.05 39.0833 15 32.2222 15 29.2778C6.0375 31.2222 0 34.7222 0 38.8889V50H60V38.8889C60 34.7222 54 31.2222 45 29.2778Z" fill="#F6A31B"/>
</svg>
