<svg width="60" height="60" viewBox="0 0 60 60" fill="none" xmlns="http://www.w3.org/2000/svg">
<path d="M59.063 0H56.25V0.896C52.334 1.772 51.771 5.407 51.5499 6.796C51.4449 7.453 51.2319 8.738 50.9679 10.312H1.98764C0.0496239 10.312 -0.167377 12.123 0.0856242 13.125L5.83166 38.492C6.08366 39.494 7.14467 40.312 8.18468 40.312H51.1289C52.163 40.312 53.006 41.153 53.006 42.187C53.006 43.221 52.163 44.062 51.1289 44.062H4.25465C3.75737 44.062 3.28045 44.2595 2.92882 44.6112C2.57718 44.9628 2.37964 45.4397 2.37964 45.937C2.37964 46.4343 2.57718 46.9112 2.92882 47.2628C3.28045 47.6145 3.75737 47.812 4.25465 47.812H6.68467C5.51178 48.4603 4.53401 49.4109 3.85306 50.5651C3.1721 51.7193 2.81284 53.0349 2.81264 54.375H4.68765C4.68765 57.48 7.20767 60 10.3127 60C13.4177 60 15.9377 57.48 15.9377 54.375H17.8127C17.8124 53.0348 17.453 51.7192 16.7719 50.5649C16.0908 49.4107 15.1128 48.4601 13.9397 47.812H40.4339C39.2608 48.4601 38.2828 49.4107 37.6017 50.5649C36.9206 51.7192 36.5612 53.0348 36.5609 54.375H38.4359C38.4637 55.8487 39.0686 57.2527 40.1207 58.2851C41.1727 59.3175 42.5879 59.8959 44.0619 59.8959C45.5359 59.8959 46.9511 59.3175 48.0031 58.2851C49.0552 57.2527 49.6601 55.8487 49.6879 54.375H51.5629C51.5627 53.0349 51.2035 51.7193 50.5225 50.5651C49.8416 49.4109 48.8638 48.4603 47.6909 47.812H51.1309C52.6224 47.8107 54.0524 47.2176 55.107 46.163C56.1616 45.1084 56.7547 43.6784 56.756 42.187C56.7559 41.4482 56.6102 40.7166 56.3273 40.0341C56.0445 39.3516 55.63 38.7314 55.1074 38.2091C54.5849 37.6868 53.9646 37.2725 53.282 36.9899C52.5994 36.7073 51.8678 36.5619 51.1289 36.562H50.4319L52.83 21.652C53.498 17.714 54.938 9.207 55.276 7.091C55.446 6.022 55.611 5.271 56.25 4.85V5.624H59.063C59.3111 5.62321 59.5488 5.52437 59.7243 5.34904C59.8999 5.17371 59.9989 4.93609 60 4.688V0.938C59.9995 0.689562 59.9006 0.451436 59.725 0.275669C59.5495 0.0999031 59.3114 0.000792329 59.063 0ZM10.3127 57.188C9.56687 57.1872 8.85183 56.8906 8.32446 56.3632C7.79709 55.8358 7.50047 55.1208 7.49967 54.375H13.1247C13.1239 55.1206 12.8274 55.8355 12.3003 56.3629C11.7731 56.8902 11.0583 57.1869 10.3127 57.188ZM44.0629 57.188C43.3169 57.1875 42.6016 56.891 42.074 56.3636C41.5464 55.8362 41.2497 55.121 41.2489 54.375H46.8759C46.8741 55.1205 46.5771 55.8349 46.05 56.362C45.5228 56.8892 44.8084 57.1862 44.0629 57.188ZM41.7559 14.994C41.7889 14.7398 41.912 14.506 42.1029 14.3349C42.2937 14.1639 42.5397 14.0671 42.7959 14.062H48.7329C49.2489 14.062 49.6079 14.478 49.5269 14.989L48.9389 18.76C48.8609 19.27 48.3719 19.687 47.8549 19.687H42.1919C42.0726 19.6902 41.9541 19.6674 41.8445 19.6204C41.7348 19.5734 41.6367 19.5032 41.5568 19.4147C41.4769 19.3261 41.4171 19.2213 41.3815 19.1074C41.346 18.9935 41.3355 18.8733 41.3509 18.755L41.7559 14.994ZM40.7469 24.369C40.7799 24.1148 40.903 23.881 41.0939 23.7099C41.2847 23.5389 41.5306 23.4421 41.7869 23.437H47.2699C47.7869 23.437 48.1449 23.853 48.0669 24.364L47.6239 27.198C47.5449 27.708 47.0569 28.125 46.5399 28.125H41.2829C41.1637 28.1278 41.0454 28.1049 40.9359 28.0578C40.8264 28.0106 40.7284 27.9404 40.6486 27.8519C40.5687 27.7635 40.5089 27.6588 40.4732 27.545C40.4376 27.4313 40.4269 27.3112 40.4419 27.193L40.7469 24.369ZM4.86565 18.777L3.91565 14.972C3.79165 14.47 4.11365 14.062 4.63065 14.062H11.6897C12.2077 14.062 12.6747 14.481 12.7297 14.994L13.1337 18.756C13.1487 18.8742 13.138 18.9941 13.1024 19.1078C13.0668 19.2215 13.0071 19.3261 12.9273 19.4145C12.8476 19.503 12.7497 19.5732 12.6404 19.6204C12.531 19.6676 12.4128 19.6907 12.2937 19.688H6.03266C5.51666 19.688 4.99066 19.277 4.86565 18.777ZM8.13667 28.125C7.62067 28.125 7.09467 27.715 6.97067 27.215L6.25466 24.348C6.12966 23.846 6.44966 23.438 6.96667 23.438H12.6957C13.2127 23.438 13.6807 23.857 13.7357 24.37L14.0397 27.194C14.0549 27.3122 14.0443 27.4322 14.0088 27.546C13.9732 27.6597 13.9135 27.7644 13.8337 27.8529C13.754 27.9414 13.656 28.0116 13.5466 28.0588C13.4372 28.1059 13.3188 28.1288 13.1997 28.126L8.13667 28.125ZM14.1057 36.563H10.2407C9.72168 36.563 9.19868 36.153 9.07368 35.653L8.35768 32.786C8.23368 32.284 8.55368 31.876 9.07168 31.876H13.6017C14.1187 31.876 14.5867 32.295 14.6437 32.808L14.9457 35.632C14.9609 35.7501 14.9503 35.8702 14.9148 35.9838C14.8792 36.0975 14.8195 36.2022 14.7397 36.2906C14.6599 36.379 14.562 36.4492 14.4525 36.4962C14.3431 36.5432 14.2248 36.566 14.1057 36.563ZM25.5978 35.625C25.5973 35.874 25.498 36.1125 25.3218 36.2884C25.1455 36.4642 24.9067 36.563 24.6578 36.563H19.7667C19.5107 36.5577 19.265 36.4608 19.0744 36.2897C18.8837 36.1187 18.7607 35.885 18.7277 35.631L18.4237 32.807C18.4082 32.6888 18.4185 32.5687 18.4539 32.4549C18.4893 32.3411 18.5489 32.2363 18.6286 32.1478C18.7083 32.0592 18.8063 31.989 18.9158 31.9419C19.0252 31.8948 19.1436 31.872 19.2627 31.875H24.6578C24.9067 31.875 25.1455 31.9738 25.3218 32.1496C25.498 32.3255 25.5973 32.564 25.5978 32.813V35.625ZM25.5978 27.188C25.5973 27.437 25.498 27.6755 25.3218 27.8514C25.1455 28.0272 24.9067 28.126 24.6578 28.126H18.8597C18.3437 28.126 17.8777 27.707 17.8197 27.194L17.5177 24.37C17.5024 24.2519 17.5128 24.1318 17.5483 24.0181C17.5837 23.9044 17.6433 23.7997 17.723 23.7111C17.8027 23.6226 17.9006 23.5523 18.01 23.5052C18.1194 23.4581 18.2377 23.4351 18.3567 23.438H24.6578C24.9067 23.438 25.1455 23.5368 25.3218 23.7126C25.498 23.8885 25.5973 24.127 25.5978 24.376V27.188ZM25.5978 18.75C25.5973 18.999 25.498 19.2375 25.3218 19.4134C25.1455 19.5892 24.9067 19.688 24.6578 19.688H17.9557C17.6995 19.6829 17.4536 19.5861 17.2627 19.4151C17.0719 19.244 16.9487 19.0102 16.9157 18.756L16.5117 14.994C16.4966 14.8758 16.5071 14.7558 16.5427 14.642C16.5782 14.5283 16.6379 14.4236 16.7177 14.3351C16.7975 14.2466 16.8954 14.1764 17.0049 14.1292C17.1143 14.0821 17.2326 14.0592 17.3517 14.062H24.6588C24.9077 14.062 25.1465 14.1608 25.3228 14.3366C25.499 14.5125 25.5983 14.751 25.5988 15L25.5978 18.75ZM35.7568 35.631C35.7238 35.8852 35.6007 36.119 35.4099 36.2901C35.219 36.4611 34.9731 36.5579 34.7168 36.563H30.2968C30.048 36.5627 29.8095 36.4639 29.6335 36.288C29.4575 36.1122 29.3583 35.8738 29.3578 35.625V32.812C29.3583 32.5632 29.4575 32.3248 29.6335 32.149C29.8095 31.9731 30.048 31.8743 30.2968 31.874H35.2208C35.7368 31.874 36.1169 32.293 36.0609 32.806L35.7568 35.631ZM36.6629 27.193C36.6298 27.4472 36.5067 27.681 36.3159 27.8521C36.125 28.0231 35.8791 28.1199 35.6228 28.125H30.2968C30.048 28.1247 29.8095 28.0259 29.6335 27.85C29.4575 27.6742 29.3583 27.4358 29.3578 27.187V24.374C29.3583 24.1252 29.4575 23.8868 29.6335 23.711C29.8095 23.5351 30.048 23.4363 30.2968 23.436H36.1269C36.6439 23.436 37.0229 23.855 36.9659 24.368L36.6629 27.193ZM37.5689 18.756C37.5359 19.0102 37.4127 19.244 37.2219 19.4151C37.031 19.5861 36.7851 19.6829 36.5289 19.688H30.2968C30.048 19.6877 29.8095 19.5889 29.6335 19.413C29.4575 19.2372 29.3583 18.9988 29.3578 18.75V15C29.3583 14.7512 29.4575 14.5128 29.6335 14.337C29.8095 14.1611 30.048 14.0623 30.2968 14.062H37.1339C37.6509 14.062 38.0299 14.481 37.9749 14.994L37.5689 18.756ZM44.8009 36.563V36.556L44.7929 36.563H40.3769C40.3479 36.563 40.3229 36.549 40.2939 36.545C40.2889 36.511 40.2889 36.477 40.2829 36.441L40.2389 36.533L40.2759 36.541C39.8149 36.488 39.4849 36.107 39.5379 35.631L39.8399 32.807C39.8729 32.5528 39.996 32.319 40.1869 32.1479C40.3777 31.9769 40.6236 31.8801 40.8799 31.875H45.9559C46.4729 31.875 46.8289 32.291 46.7509 32.802L46.3079 35.636C46.2309 36.146 45.7429 36.563 45.2259 36.563H44.8009Z" fill="#F6A31B"/>
</svg>
