<svg width="80" height="80" viewBox="0 0 80 80" fill="none" xmlns="http://www.w3.org/2000/svg">
<path d="M28 35.5556C31.1645 35.5556 34.2579 34.5129 36.8891 32.5595C39.5203 30.606 41.5711 27.8295 42.7821 24.581C43.9931 21.3326 44.3099 17.7581 43.6926 14.3095C43.0752 10.861 41.5513 7.69326 39.3137 5.207C37.0761 2.72073 34.2251 1.02756 31.1214 0.341603C28.0177 -0.344356 24.8007 0.00770277 21.8771 1.35326C18.9534 2.69882 16.4546 4.97744 14.6965 7.90098C12.9384 10.8245 12 14.2617 12 17.7778C12 22.4927 13.6857 27.0146 16.6863 30.3486C19.6869 33.6826 23.7565 35.5556 28 35.5556ZM60 44.4445C62.3734 44.4445 64.6935 43.6625 66.6668 42.1974C68.6402 40.7323 70.1783 38.6499 71.0866 36.2136C71.9948 33.7772 72.2324 31.0963 71.7694 28.5099C71.3064 25.9235 70.1635 23.5477 68.4853 21.683C66.8071 19.8183 64.6689 18.5485 62.3411 18.034C60.0133 17.5195 57.6005 17.7836 55.4078 18.7927C53.2151 19.8019 51.3409 21.5109 50.0224 23.7035C48.7038 25.8962 48 28.474 48 31.1111C48 34.6473 49.2643 38.0387 51.5147 40.5392C53.7652 43.0397 56.8174 44.4445 60 44.4445ZM76 75.5556C77.0609 75.5556 78.0783 75.0873 78.8284 74.2538C79.5786 73.4203 80 72.2899 80 71.1111C79.9968 66.9573 78.9459 62.8877 76.9664 59.3639C74.987 55.8402 72.1584 53.0034 68.8014 51.1754C65.4444 49.3475 61.6936 48.6015 57.9744 49.0222C54.2552 49.4429 50.7166 51.0134 47.76 53.5556C43.842 49.2194 38.8562 46.2693 33.4313 45.0774C28.0064 43.8856 22.3853 44.5053 17.2769 46.8584C12.1685 49.2115 7.80165 53.1926 4.72696 58.2997C1.65228 63.4068 0.00748078 69.4112 0 75.5556C0 76.7343 0.421427 77.8648 1.17157 78.6983C1.92172 79.5318 2.93913 80 4 80H52C53.0609 80 54.0783 79.5318 54.8284 78.6983C55.5786 77.8648 56 76.7343 56 75.5556" fill="#F7A21B"/>
</svg>
