<svg width="55" height="55" viewBox="0 0 55 55" fill="none" xmlns="http://www.w3.org/2000/svg">
<path d="M27.5 18.6169C22.5819 18.6169 18.6169 22.62 18.6169 27.5C18.6169 32.38 22.62 36.3831 27.5 36.3831C32.38 36.3831 36.3831 32.38 36.3831 27.5C36.3831 22.62 32.38 18.6169 27.5 18.6169ZM54.1875 27.5C54.1875 23.8019 54.1875 20.18 53.9969 16.4819C53.8062 12.2119 52.815 8.39938 49.6887 5.31125C46.5625 2.185 42.7881 1.19375 38.5181 1.00312C34.82 0.8125 31.1981 0.8125 27.5 0.8125C23.8019 0.8125 20.18 0.8125 16.4819 1.00312C12.2119 1.19375 8.39938 2.185 5.31125 5.31125C2.185 8.4375 1.19375 12.2119 1.00312 16.4819C0.8125 20.18 0.8125 23.8019 0.8125 27.5C0.8125 31.1981 0.8125 34.82 1.00312 38.5181C1.19375 42.7881 2.185 46.6006 5.31125 49.6887C8.4375 52.815 12.2119 53.8062 16.4819 53.9969C20.18 54.1875 23.8019 54.1875 27.5 54.1875C31.1981 54.1875 34.82 54.1875 38.5181 53.9969C42.7881 53.8062 46.6006 52.815 49.6887 49.6887C52.815 46.5625 53.8062 42.7881 53.9969 38.5181C54.2256 34.8581 54.1875 31.1981 54.1875 27.5ZM27.5 41.1869C19.9131 41.1869 13.8131 35.0869 13.8131 27.5C13.8131 19.9131 19.9131 13.8131 27.5 13.8131C35.0869 13.8131 41.1869 19.9131 41.1869 27.5C41.1869 35.0869 35.0869 41.1869 27.5 41.1869ZM41.7588 16.4437C40.005 16.4437 38.5562 15.0331 38.5562 13.2413C38.5562 11.4494 39.9669 10.0388 41.7588 10.0388C43.5506 10.0388 44.9613 11.4494 44.9613 13.2413C44.9709 13.6589 44.8947 14.074 44.7373 14.4609C44.5799 14.8479 44.3447 15.1983 44.0462 15.4906C43.754 15.789 43.4035 16.0242 43.0166 16.1816C42.6296 16.339 42.2145 16.4153 41.7969 16.4056L41.7588 16.4437Z" fill="black"/>
</svg>
