<svg width="40" height="40" viewBox="0 0 40 40" fill="none" xmlns="http://www.w3.org/2000/svg">
<path d="M9.42659 34.132C9.18729 34.3401 8.89359 34.4756 8.57998 34.5226C8.26636 34.5696 7.94585 34.5261 7.65607 34.3973C7.36628 34.2685 7.11926 34.0597 6.94399 33.7955C6.76872 33.5312 6.67249 33.2224 6.66659 32.9053V29.167C5.78253 29.167 4.93468 28.8158 4.30956 28.1907C3.68444 27.5656 3.33325 26.7177 3.33325 25.8337V14.167C3.33325 13.2829 3.68444 12.4351 4.30956 11.81C4.93468 11.1848 5.78253 10.8337 6.66659 10.8337H24.9999C25.884 10.8337 26.7318 11.1848 27.3569 11.81C27.9821 12.4351 28.3333 13.2829 28.3333 14.167V25.8337C28.3333 26.7177 27.9821 27.5656 27.3569 28.1907C26.7318 28.8158 25.884 29.167 24.9999 29.167H16.6716L9.42659 34.132ZM29.9999 20.862C29.9945 21.067 29.9945 21.272 29.9999 21.477V20.862ZM29.9999 20.862C30.0077 20.6842 30.0099 18.4514 30.0066 14.1637C30.0053 12.8384 29.4779 11.568 28.5404 10.6314C27.6028 9.69476 26.3318 9.16866 25.0066 9.16866H11.6666V7.50033C11.6666 6.61627 12.0178 5.76842 12.6429 5.1433C13.268 4.51818 14.1159 4.16699 14.9999 4.16699H33.3333C34.2173 4.16699 35.0652 4.51818 35.6903 5.1433C36.3154 5.76842 36.6666 6.61627 36.6666 7.50033V19.167C36.6666 20.051 36.3154 20.8989 35.6903 21.524C35.0652 22.1491 34.2173 22.5003 33.3333 22.5003V26.2387C33.3273 26.5557 33.2311 26.8645 33.0558 27.1288C32.8806 27.3931 32.6336 27.6019 32.3438 27.7307C32.054 27.8595 31.7335 27.9029 31.4199 27.8559C31.1062 27.8089 30.8125 27.6734 30.5733 27.4653L29.9999 27.072V20.862Z" fill="#17223B"/>
</svg>
