<svg width="101" height="28" viewBox="0 0 101 28" fill="none" xmlns="http://www.w3.org/2000/svg">
<path d="M14.3101 25.9499C12.8101 26.2199 11.2751 26.2999 9.69006 26.5149L4.86006 12.1499V27.1299C3.36006 27.2949 1.98506 27.5099 0.560059 27.7249V0.274902H4.57006L10.0601 15.8499V0.274902H14.3101V25.9499ZM22.6251 10.3249C24.2601 10.3249 26.7701 10.2449 28.2751 10.2449V14.5349C26.4001 14.5349 24.2051 14.5349 22.6251 14.6149V20.9949C25.1051 20.8349 27.5851 20.6199 30.0951 20.5399V24.6649L18.4001 25.6049V0.274902H30.0951V4.5649H22.6251V10.3249ZM45.7951 4.5649H41.4151V24.2899C39.9901 24.2899 38.5651 24.2899 37.1951 24.3449V4.5649H32.8101V0.274902H45.7951V4.5649ZM52.6601 10.0299H58.4401V14.3199H52.6601V24.0499H48.5101V0.274902H60.3101V4.5649H52.6601V10.0299ZM67.175 20.2949C69.5751 20.3499 72.0051 20.5399 74.3551 20.6699V24.9099C70.5596 24.6397 66.7587 24.4514 62.9551 24.3449V0.274902H67.175V20.2949ZM77.9151 25.2049C79.2651 25.2849 80.685 25.3649 82.06 25.5249V0.274902H77.9151V25.2049ZM100.56 0.274902L95.2001 13.3249L100.56 27.7299C98.9751 27.5149 97.395 27.2199 95.81 26.9499L92.7751 19.0149L89.6851 26.3049C88.1551 26.0399 86.68 25.9549 85.15 25.7449L90.585 13.1749L85.6751 0.274902H90.215L92.9851 7.4899L95.94 0.2799L100.56 0.274902Z" fill="black"/>
</svg>
