<svg width="190" height="147" viewBox="0 0 190 147" fill="none" xmlns="http://www.w3.org/2000/svg">
<path d="M113.289 52.499C111.16 52.499 109.62 53.9739 109.62 55.995C109.62 58.0342 111.16 59.5091 113.27 59.5091C115.399 59.5091 116.92 58.0343 116.939 56.0132C116.939 53.9739 115.418 52.499 113.289 52.499Z" fill="#0B315E"/>
<path d="M149.905 52.4997C147.776 52.4633 146.179 53.9017 146.141 55.9228C146.103 57.9621 147.624 59.4916 149.715 59.528C151.844 59.5644 153.422 58.126 153.46 56.1049C153.517 54.0474 152.015 52.5361 149.905 52.4997Z" fill="#0B315E"/>
<path d="M186.388 52.4992C184.258 52.481 182.699 53.9558 182.68 55.9769C182.661 58.0162 184.201 59.5093 186.312 59.5275C188.441 59.5457 189.981 58.089 190 56.0497C190.019 53.9922 188.517 52.5174 186.388 52.4992Z" fill="#0B315E"/>
<path d="M21.9202 77.0257C24.0495 77.0257 25.5894 75.5691 25.5894 73.5298C25.5894 71.4905 24.0685 70.0156 21.9392 70.0156C19.8099 70.0156 18.2699 71.4905 18.2699 73.5116C18.2509 75.5326 19.8099 77.0075 21.9202 77.0257Z" fill="#0B315E"/>
<path d="M58.4034 77.0265C60.5327 77.0447 62.0916 75.6063 62.1296 73.567C62.1487 71.5095 60.6468 70.0164 58.5365 69.9982C56.4072 69.98 54.8293 71.4184 54.8103 73.4395C54.7722 75.4788 56.3122 76.9901 58.4034 77.0265Z" fill="#0B315E"/>
<path d="M94.9624 69.9982C92.8521 70.0164 91.3122 71.5095 91.3312 73.5488C91.3502 75.5699 92.9282 77.0447 95.0385 77.0265C97.1677 77.0083 98.6696 75.5152 98.6506 73.4759C98.6506 71.4367 97.0917 69.98 94.9624 69.9982Z" fill="#0B315E"/>
<path d="M131.693 69.9966C129.563 69.942 127.947 71.3622 127.871 73.3651C127.814 75.4044 129.297 76.9521 131.388 77.0249C133.518 77.0795 135.134 75.6593 135.191 73.6564C135.267 71.5807 133.803 70.0513 131.693 69.9966Z" fill="#0B315E"/>
<path d="M168.157 69.9982C166.028 69.98 164.45 71.4367 164.431 73.4395C164.412 75.4788 165.933 76.9901 168.043 77.0083C170.172 77.0265 171.731 75.5699 171.75 73.5488C171.769 71.5095 170.267 70.0164 168.157 69.9982Z" fill="#0B315E"/>
<path d="M40.2097 94.5244C42.339 94.5062 43.8599 93.0313 43.8409 90.992C43.8409 88.9527 42.301 87.4961 40.1717 87.4961C38.0424 87.4961 36.5215 88.9892 36.5215 91.0284C36.5405 93.0495 38.0994 94.5244 40.2097 94.5244Z" fill="#0B315E"/>
<path d="M73.08 90.754C72.966 92.8115 74.4108 94.3956 76.4831 94.5231C78.6124 94.6323 80.2854 93.2485 80.3994 91.2639C80.5135 89.2064 79.0876 87.6223 77.0154 87.513C74.8481 87.3856 73.1941 88.7694 73.08 90.754Z" fill="#0B315E"/>
<path d="M113.423 87.4957C111.293 87.4411 109.677 88.8431 109.62 90.8642C109.563 92.9035 111.046 94.4511 113.137 94.524C115.267 94.5786 116.883 93.1584 116.94 91.1555C116.997 89.0798 115.533 87.5503 113.423 87.4957Z" fill="#0B315E"/>
<path d="M149.754 87.4943C147.643 87.5125 146.122 89.0238 146.16 91.0631C146.179 93.0842 147.757 94.5408 149.887 94.5226C151.997 94.4862 153.499 92.9931 153.48 90.9538C153.442 88.9145 151.883 87.4761 149.754 87.4943Z" fill="#0B315E"/>
<path d="M58.46 112.02C60.5893 112.02 62.1102 110.563 62.1292 108.524C62.1292 106.485 60.6083 105.01 58.479 105.01C56.3497 105.01 54.8098 106.485 54.8098 108.506C54.8098 110.527 56.3497 112.02 58.46 112.02Z" fill="#0B315E"/>
<path d="M94.9237 104.993C92.8134 105.029 91.2925 106.541 91.3305 108.58C91.3686 110.601 92.9465 112.058 95.0758 112.021C97.186 111.985 98.6879 110.492 98.6499 108.434C98.6309 106.395 97.072 104.956 94.9237 104.993Z" fill="#0B315E"/>
<path d="M131.616 104.992C129.487 104.974 127.909 106.431 127.89 108.434C127.871 110.473 129.392 111.984 131.502 112.002C133.631 112.021 135.19 110.582 135.209 108.543C135.228 106.504 133.726 105.011 131.616 104.992Z" fill="#0B315E"/>
<path d="M76.5975 129.519C78.7268 129.574 80.3428 128.154 80.3998 126.151C80.4568 124.093 78.9929 122.564 76.9017 122.509C74.7724 122.455 73.1564 123.875 73.0804 125.878C73.0044 127.899 74.5063 129.447 76.5975 129.519Z" fill="#0B315E"/>
<path d="M113.366 122.49C111.236 122.454 109.639 123.892 109.601 125.913C109.563 127.952 111.084 129.482 113.175 129.518C115.305 129.555 116.883 128.116 116.921 126.095C116.978 124.038 115.476 122.526 113.366 122.49Z" fill="#0B315E"/>
<path d="M94.9432 139.989C92.833 140.025 91.312 141.518 91.3501 143.558C91.3881 145.579 92.966 147.035 95.0763 146.999C97.1866 146.963 98.6885 145.47 98.6695 143.43C98.6314 141.409 97.0725 139.953 94.9432 139.989Z" fill="#0B315E"/>
<path d="M58.4792 7.03414C60.6085 7.03414 62.1294 5.5593 62.1294 3.50179C62.1294 1.4625 60.5895 0.00585938 58.4602 0.00585938C56.3309 0.00585938 54.791 1.49892 54.81 3.52C54.81 5.5593 56.3689 7.03414 58.4792 7.03414Z" fill="#0B315E"/>
<path d="M98.6504 3.75689C98.7645 1.69939 97.3386 0.115288 95.2664 0.00603973C93.1181 -0.103208 91.4641 1.2806 91.3501 3.26527C91.236 5.30457 92.6808 6.90687 94.7531 7.01612C96.8824 7.14357 98.5554 5.74156 98.6504 3.75689Z" fill="#0B315E"/>
<path d="M131.616 0.00602819C129.487 -0.0121798 127.909 1.44446 127.89 3.44734C127.871 5.48664 129.392 6.9979 131.502 7.01611C133.631 7.03431 135.19 5.59588 135.209 3.55659C135.228 1.51729 133.726 0.0424442 131.616 0.00602819Z" fill="#0B315E"/>
<path d="M40.2662 24.5322C42.3765 24.4958 43.8784 23.0028 43.8594 20.9635C43.8404 18.9424 42.2814 17.4857 40.1332 17.5222C38.0229 17.5586 36.502 19.0516 36.54 21.0909C36.559 23.0938 38.137 24.5504 40.2662 24.5322Z" fill="#0B315E"/>
<path d="M76.8062 17.5051C74.677 17.4868 73.118 18.9253 73.08 20.9464C73.061 22.9857 74.5629 24.4969 76.6732 24.5151C78.8024 24.5333 80.3614 23.0949 80.3994 21.0556C80.4184 19.0345 78.9165 17.5415 76.8062 17.5051Z" fill="#0B315E"/>
<path d="M113.308 17.5051C111.179 17.4868 109.62 18.9435 109.62 20.9828C109.601 23.0221 111.141 24.5151 113.251 24.5333C115.38 24.5515 116.92 23.0767 116.939 21.0556C116.939 18.9981 115.437 17.5233 113.308 17.5051Z" fill="#0B315E"/>
<path d="M149.81 17.5049C147.681 17.5049 146.16 18.9797 146.16 21.019C146.16 23.0583 147.719 24.5332 149.829 24.515C151.958 24.515 153.479 23.0401 153.479 20.9826C153.46 18.9615 151.939 17.5049 149.81 17.5049Z" fill="#0B315E"/>
<path d="M21.8824 42.0314C24.0117 42.0496 25.5516 40.593 25.5706 38.5537C25.5896 36.5144 24.0687 35.0213 21.9584 35.0031C19.8292 34.9849 18.2702 36.4597 18.2512 38.4808C18.2512 40.5019 19.7912 42.0132 21.8824 42.0314Z" fill="#0B315E"/>
<path d="M58.4222 42.0314C60.5515 42.0496 62.0914 40.593 62.1104 38.5537C62.1294 36.5144 60.6085 35.0213 58.4982 35.0031C56.369 34.9849 54.81 36.4597 54.791 38.4808C54.791 40.5019 56.3309 42.0132 58.4222 42.0314Z" fill="#0B315E"/>
<path d="M95.1515 35.0025C93.0222 34.9479 91.4062 36.3681 91.3302 38.371C91.2732 40.4103 92.7561 41.958 94.8473 42.0308C96.9766 42.1036 98.5926 40.6652 98.6496 38.6623C98.7256 36.5866 97.2618 35.0753 95.1515 35.0025Z" fill="#0B315E"/>
<path d="M131.559 35.0029C129.43 35.0029 127.89 36.4778 127.89 38.4989C127.89 40.5382 129.43 42.013 131.54 42.0312C133.669 42.0312 135.209 40.5746 135.209 38.5353C135.209 36.4778 133.688 35.0029 131.559 35.0029Z" fill="#0B315E"/>
<path d="M168.119 35.0031C165.989 34.9849 164.43 36.4597 164.411 38.4808C164.392 40.5201 165.932 42.0132 168.042 42.0314C170.172 42.0496 171.712 40.5747 171.731 38.5537C171.75 36.4962 170.248 35.0213 168.119 35.0031Z" fill="#0B315E"/>
<path d="M3.63136 59.5268C5.76063 59.545 7.30056 58.0702 7.31957 56.0491C7.33858 54.0098 5.81767 52.5168 3.7074 52.5168C1.57812 52.4986 0.0191855 53.9734 0.00017411 55.9945C-0.0188373 57.9974 1.52109 59.5086 3.63136 59.5268Z" fill="#0B315E"/>
<path d="M40.0575 59.5269C42.1867 59.5997 43.8027 58.1613 43.8598 56.1584C43.9168 54.1009 42.4529 52.5714 40.3617 52.4986C38.2324 52.444 36.6164 53.8642 36.5404 55.8671C36.4643 57.9064 37.9662 59.454 40.0575 59.5269Z" fill="#0B315E"/>
<path d="M76.787 52.4992C74.6577 52.481 73.0797 53.9376 73.0607 55.9587C73.0417 57.998 74.5626 59.5093 76.6729 59.5275C78.8022 59.5457 80.3611 58.089 80.3801 56.068C80.4181 54.0105 78.9162 52.5174 76.787 52.4992Z" fill="#0B315E"/>
</svg>
