<svg width="250" height="205" viewBox="0 0 250 205" fill="none" xmlns="http://www.w3.org/2000/svg">
<path d="M233.998 215.809C206.252 238.521 170.666 248.269 133.8 243.269L133.914 241.491C209.046 251.695 274.099 198.445 278.939 122.777C281.283 86.1223 269.315 49.7365 245.243 20.3301C221.172 -9.07624 187.862 -28.0045 151.472 -32.9407L151.586 -34.7185C188.457 -29.7106 222.188 -10.5409 246.575 19.2519C270.963 49.0446 283.084 85.9027 280.716 123.031C278.336 160.145 261.743 193.097 233.998 215.809Z" fill="#0B315E"/>
<path d="M227.677 208.087C202.904 228.366 169.849 238.516 134.418 233.703L134.531 231.925C204.418 241.417 264.94 191.876 269.448 121.486C273.95 51.1015 220.747 -13.893 150.86 -23.3852L150.974 -25.1631C221.837 -15.5382 275.778 50.3577 271.219 121.733C268.931 157.41 252.445 187.813 227.677 208.087Z" fill="#0B315E"/>
<path d="M221.434 200.461C197.507 220.048 166.818 228.452 135.023 224.14L135.137 222.362C166.462 226.617 196.688 218.328 220.256 199.036C243.831 179.738 257.922 151.738 259.939 120.202C261.956 88.6543 251.652 57.3467 230.937 32.04C210.216 6.72621 181.554 -9.55467 150.242 -13.8076L150.355 -15.5855C182.144 -11.268 211.244 5.26328 232.275 30.9563C253.307 56.6493 263.758 88.4346 261.716 120.456C259.663 152.451 245.362 180.875 221.434 200.461Z" fill="#0B315E"/>
<path d="M215.115 192.742C194.006 210.022 165.834 218.672 135.635 214.571L135.749 212.793C195.169 220.863 246.622 178.745 250.45 118.902C254.277 59.0586 209.051 3.80901 149.631 -4.26154L149.745 -6.03941C210.141 2.16379 256.111 58.3221 252.215 119.142C250.27 149.555 236.224 175.463 215.115 192.742Z" fill="#0B315E"/>
<path d="M208.837 185.072C189.56 200.851 163.828 208.758 136.247 205.012L136.361 203.234C190.547 210.594 237.463 172.19 240.946 117.623C244.437 63.0507 203.199 12.6735 149.019 5.32091L149.132 3.54299C204.283 11.0337 246.27 62.3267 242.718 117.87C240.948 145.63 228.113 169.292 208.837 185.072Z" fill="#0B315E"/>
<path d="M202.557 177.4C185.106 191.685 161.816 198.837 136.864 195.448L136.977 193.67C185.918 200.317 228.303 165.622 231.455 116.333C232.982 92.4511 225.185 68.7464 209.5 49.5857C193.816 30.4251 172.119 18.0981 148.406 14.8774L148.52 13.0994C172.703 16.3776 194.832 28.9605 210.826 48.5003C226.821 68.0402 234.778 92.2243 233.22 116.573C231.613 141.703 220.008 163.116 202.557 177.4Z" fill="#0B315E"/>
<path d="M196.279 169.73C180.66 182.515 159.817 188.918 137.469 185.883L137.583 184.105C181.29 190.041 219.137 159.061 221.952 115.042C224.768 71.0234 191.501 30.3839 147.794 24.4475L147.908 22.6696C192.592 28.7387 226.602 70.2868 223.724 115.289C222.286 137.771 211.897 156.945 196.279 169.73Z" fill="#0B315E"/>
<path d="M122.498 -19.4782L121.171 1.26384L117.798 -2.85734L118.66 -16.3365L122.498 -19.4782Z" fill="#0B315E"/>
<path d="M143.807 -36.9212L139.895 24.1378L136.574 20.0811L140.022 -33.8231L143.807 -36.9212Z" fill="#0B315E"/>
<path d="M136.744 -31.1396L133.687 16.5537L130.313 12.4325L132.906 -27.9979L136.744 -31.1396Z" fill="#0B315E"/>
<path d="M129.621 -25.3089L127.432 8.91235L124.053 4.78401L125.783 -22.1672L129.621 -25.3089Z" fill="#0B315E"/>
</svg>
