<svg width="904" height="820" viewBox="0 0 904 820" fill="none" xmlns="http://www.w3.org/2000/svg">
<path d="M393.208 548.452C448.427 521.647 478.199 429.375 456.022 382.203C431.52 330.111 278.313 338.023 260.732 350.726C243.151 363.427 386.873 404.074 367.261 452.004C345.48 505.207 236.11 505.279 239.088 527.997C242.015 550.349 329.38 579.432 393.208 548.452Z" stroke="#4A3AFF" stroke-opacity="0.1" stroke-width="5" stroke-miterlimit="10"/>
<path d="M410.496 555.007C475.219 531.648 503.302 419.958 474.771 367.34C442.435 307.743 275.986 329.833 251.278 339.264C229.98 347.382 368.243 402.043 351.712 459.961C333.771 522.887 235.128 533.107 242.496 547.707C250.418 563.357 334.546 582.353 410.496 555.007Z" stroke="#4A3AFF" stroke-opacity="0.1" stroke-width="5" stroke-miterlimit="10"/>
<path d="M427.782 561.546C501.907 541.705 528.353 410.554 493.521 352.49C453.282 285.33 274.987 321.831 241.825 327.787C217.718 332.168 349.491 399.939 336.181 467.947C321.975 540.479 231.925 561.751 245.905 567.313C256.339 577.169 339.436 585.212 427.782 561.546Z" stroke="#4A3AFF" stroke-opacity="0.1" stroke-width="5" stroke-miterlimit="10"/>
<path d="M445.069 568.145C528.544 551.676 553.355 401.21 512.221 337.672C464.01 263.095 271.629 303.287 232.321 316.354C207.7 324.546 330.619 397.866 320.598 475.917C310.045 558.056 229.789 590 249.263 586.979C263.504 590.585 344.343 587.986 445.069 568.145Z" stroke="#4A3AFF" stroke-opacity="0.1" stroke-width="5" stroke-miterlimit="10"/>
<path d="M462.358 574.658C555.146 561.517 578.322 391.808 531.023 322.766C474.824 240.715 272.749 294.471 222.92 304.851C194.959 310.692 311.801 395.692 305.104 483.831C298.215 575.577 225.9 614.514 252.726 606.587C269.908 601.522 349.216 590.688 462.358 574.658Z" stroke="#4A3AFF" stroke-opacity="0.1" stroke-width="5" stroke-miterlimit="10"/>
<path d="M479.626 581.213C581.747 571.329 603.27 382.435 549.773 307.917C485.532 218.405 273.557 301.289 213.449 293.317C182.301 289.214 292.858 393.501 289.553 491.744C286.11 593.067 223.262 643.452 256.133 626.165C276.588 615.478 354.071 593.345 479.626 581.213Z" stroke="#4A3AFF" stroke-opacity="0.1" stroke-width="5" stroke-miterlimit="10"/>
<path d="M496.912 587.752C608.348 581.125 628.201 373.135 568.54 293.055C496.222 196.11 272.817 295.274 204.012 281.914C170.35 275.375 273.936 391.413 274.039 499.76C274.143 610.718 221.18 672.33 259.558 645.875C283.629 629.275 358.926 595.973 496.912 587.752Z" stroke="#4A3AFF" stroke-opacity="0.1" stroke-width="5" stroke-miterlimit="10"/>
<path d="M514.202 594.31C634.955 590.893 653.085 363.748 587.294 278.193C506.953 173.818 271.89 289.479 194.563 270.439C158.302 261.52 254.964 389.312 258.495 507.718C262.093 628.254 219.236 700.976 262.971 665.513C290.796 642.97 363.817 598.557 514.202 594.31Z" stroke="#4A3AFF" stroke-opacity="0.1" stroke-width="5" stroke-miterlimit="10"/>
<path d="M531.487 600.866C661.555 600.647 678.05 354.406 606.044 263.332C517.645 151.525 270.803 283.771 185.107 258.952C146.161 247.666 235.972 387.167 242.962 515.661C250.038 645.805 217.324 729.491 266.378 685.152C298.026 656.58 368.656 601.128 531.487 600.866Z" stroke="#4A3AFF" stroke-opacity="0.1" stroke-width="5" stroke-miterlimit="10"/>
<path d="M548.775 607.406C688.243 610.326 702.964 345.075 624.794 248.482C528.371 129.258 269.581 278.222 175.656 247.503C133.954 233.867 216.98 385.064 227.432 523.63C237.969 663.382 215.379 757.974 269.805 704.816C305.275 670.14 373.529 603.667 548.775 607.406Z" stroke="#4A3AFF" stroke-opacity="0.1" stroke-width="5" stroke-miterlimit="10"/>
<path d="M566.063 613.96C714.793 620.107 727.914 335.744 643.544 233.618C538.996 106.978 268.186 272.687 166.203 236.027C121.695 220.056 197.953 382.945 211.883 531.587C225.882 680.959 213.502 786.385 273.214 724.453C312.54 683.674 378.418 606.193 566.063 613.96Z" stroke="#4A3AFF" stroke-opacity="0.1" stroke-width="5" stroke-miterlimit="10"/>
<path d="M583.35 620.516C741.414 629.831 752.761 326.417 662.296 218.756C549.653 84.7148 266.862 267.199 156.752 224.597C109.418 206.26 178.945 380.817 196.353 539.59C213.795 698.568 211.59 814.812 276.624 744.135C319.79 697.195 383.309 608.72 583.35 620.516Z" stroke="#4A3AFF" stroke-opacity="0.1" stroke-width="5" stroke-miterlimit="10"/>
<path d="M600.636 627.058C768.048 639.54 777.656 317.029 681.043 203.908C560.31 62.451 265.395 261.724 147.278 213.091C97.0704 192.419 159.9 378.728 180.802 547.518C201.706 716.307 209.678 843.15 280.031 763.786C327.053 710.7 388.197 611.216 600.636 627.058Z" stroke="#4A3AFF" stroke-opacity="0.1" stroke-width="5" stroke-miterlimit="10"/>
<path d="M617.921 633.611C794.684 649.247 802.553 307.771 699.812 189.044C570.968 40.1246 263.864 256.203 137.843 201.614C84.7249 178.591 140.873 376.624 165.271 555.473C189.6 733.694 207.748 871.487 283.458 783.39C334.32 724.188 393.086 613.727 617.921 633.611Z" stroke="#4A3AFF" stroke-opacity="0.1" stroke-width="5" stroke-miterlimit="10"/>
<path d="M635.213 640.168C821.324 658.959 827.178 298.617 718.513 174.183C581.233 18.1399 262.231 250.833 128.341 190.154C72.3124 164.765 121.782 374.524 149.692 563.432C177.448 751.273 205.771 899.842 286.818 803.044C341.589 737.681 398.014 616.21 635.213 640.168Z" stroke="#4A3AFF" stroke-opacity="0.1" stroke-width="5" stroke-miterlimit="10"/>
<path d="M652.497 646.708C847.959 668.652 852.091 289.288 737.314 159.348C591.976 -4.1695 260.695 245.488 118.939 178.708C59.9653 150.968 102.788 372.448 134.211 571.445C165.375 768.925 203.892 928.223 290.278 822.754C348.854 751.17 402.918 618.705 652.497 646.708Z" stroke="#4A3AFF" stroke-opacity="0.1" stroke-width="5" stroke-miterlimit="10"/>
<path d="M669.784 653.265C874.681 678.347 877.023 279.947 756.065 144.474C602.667 -26.3455 259.078 239.971 109.485 167.221C47.4993 137.101 83.3295 370.363 118.68 579.361C152.859 786.505 201.964 956.505 293.686 842.334C356.119 764.648 407.843 621.19 669.784 653.265Z" stroke="#4A3AFF" stroke-opacity="0.1" stroke-width="5" stroke-miterlimit="10"/>
<path d="M687.07 659.819C901.317 687.719 901.954 270.6 774.815 129.609C613.359 -48.714 257.423 234.54 100.014 155.743C35.1523 123.273 64.3726 368.26 103.132 587.317C140.821 804.081 200.036 984.813 297.111 861.984C363.384 778.122 412.835 623.261 687.07 659.819Z" stroke="#4A3AFF" stroke-opacity="0.1" stroke-width="5" stroke-miterlimit="10"/>
<path d="M704.36 666.361C927.957 697.487 926.855 261.272 793.568 114.747C624.072 -70.9934 255.757 229.123 90.5644 144.268C22.7418 109.433 45.4009 366.187 87.6031 595.274C128.788 821.66 198.092 1013.14 300.524 881.621C370.706 791.526 417.747 625.832 704.36 666.361Z" stroke="#4A3AFF" stroke-opacity="0.1" stroke-width="5" stroke-miterlimit="10"/>
<path d="M721.647 672.915C954.592 707.254 951.803 251.927 812.318 99.8973C634.763 -93.2292 254.05 223.69 81.1108 132.805C10.3087 95.5911 26.3394 364.039 72.0704 603.186C116.839 839.193 196.438 1041.56 303.932 901.228C378.125 805.175 422.652 628.414 721.647 672.915Z" stroke="#4A3AFF" stroke-opacity="0.1" stroke-width="5" stroke-miterlimit="10"/>
<path d="M738.933 679.47C981.227 717.065 976.785 242.568 831.067 85.0352C645.453 -115.552 252.344 218.259 71.6555 121.389C-2.14248 81.7948 7.44912 361.996 56.5217 611.245C104.716 856.83 194.353 1069.83 307.339 920.923C385.286 818.578 427.523 630.925 738.933 679.47Z" stroke="#4A3AFF" stroke-opacity="0.1" stroke-width="5" stroke-miterlimit="10"/>
<path d="M310.766 940.561C392.449 831.996 432.484 633.57 756.22 686.012C1007.88 726.789 1001.67 233.255 849.836 70.1734C656.147 -137.846 250.64 212.829 62.2043 109.871C-90.1772 26.5922 71.8977 1258.06 310.766 940.561Z" stroke="#4A3AFF" stroke-opacity="0.1" stroke-width="5" stroke-miterlimit="10"/>
</svg>
