<svg width="51" height="47" viewBox="0 0 51 47" fill="none" xmlns="http://www.w3.org/2000/svg">
<path d="M44.2505 8.38372C44.7242 8.45934 45.2031 8.49765 45.6828 8.49831C45.946 8.51655 46.2105 8.49335 46.4665 8.42956C46.6717 8.41335 46.868 8.33869 47.0321 8.21441C47.1961 8.09014 47.3212 7.92144 47.3924 7.72831C47.4529 7.52302 47.4647 7.30644 47.4267 7.09581C47.4123 6.92963 47.3529 6.77054 47.2547 6.63566C47.1566 6.50078 47.0235 6.39524 46.8699 6.33039C46.6645 6.24723 46.447 6.1977 46.2259 6.18372C45.8258 6.13462 45.4208 6.22044 45.075 6.42758C44.7292 6.63472 44.4624 6.95134 44.3169 7.32727C44.2011 7.59565 44.1224 7.87862 44.0832 8.16831C44.0694 8.36997 44.0694 8.36997 44.2505 8.38372ZM41.7892 7.46706C42.0051 6.61976 42.4833 5.86237 43.1554 5.30305C43.8275 4.74374 44.6591 4.41111 45.5315 4.35268C46.3463 4.24875 47.174 4.32862 47.9538 4.58643C49.4549 5.09977 50.2661 6.72227 49.7734 8.23018C49.5931 8.81009 49.1901 9.29473 48.6528 9.57768C48.1806 9.82564 47.6687 9.98927 47.1403 10.0612C46.2231 10.2093 45.2872 10.1969 44.3742 10.0246C44.2642 9.99876 44.1523 9.98114 44.0396 9.97185C43.9887 10.4757 44.1291 10.9803 44.4331 11.3854C44.7371 11.7904 45.1824 12.0663 45.6805 12.1581C46.4335 12.3049 47.2077 12.3049 47.9607 12.1581C48.3136 12.0825 48.6528 12.0091 49.0057 11.9243C49.3586 11.8396 49.5053 11.9518 49.5053 12.3139V13.2123C49.5204 13.3447 49.4869 13.4781 49.411 13.5877C49.3352 13.6973 49.2221 13.7756 49.0928 13.8081C48.6301 13.9894 48.1491 14.1201 47.6582 14.1977C46.7374 14.3622 45.7941 14.3544 44.8761 14.1748C44.1247 14.0562 43.4261 13.7151 42.8705 13.1954C42.315 12.6758 41.9279 12.0016 41.7594 11.2598C41.4078 10.0174 41.4205 8.70012 41.7961 7.46477L41.7892 7.46706ZM42.5157 22.0581C43.2871 21.9356 44.0751 21.966 44.8349 22.1475C45.6841 22.3816 46.4446 22.8628 47.0199 23.5299C47.5952 24.197 47.9593 25.02 48.0661 25.8944V25.9196H48.034V26.1487C48.0254 26.1814 48.026 26.2158 48.0357 26.2481C48.0454 26.2805 48.0639 26.3095 48.089 26.3321V26.2839L48.1051 26.3069V27.7048L48.0776 27.7529V27.73C48.0088 27.7758 48.0317 27.8377 48.0317 27.9133V28.0829C47.9217 30.1454 46.3199 31.8183 44.2642 32.0177C43.5013 32.1262 42.7246 32.0858 41.9771 31.8985C41.3216 31.7549 40.7143 31.4445 40.214 30.9972C39.7138 30.5499 39.3375 29.981 39.1217 29.3456C38.561 27.8653 38.561 26.2311 39.1217 24.7508C39.6236 23.2612 40.9551 22.2071 42.518 22.0581H42.5157ZM25.5001 5.04247C25.5001 4.94317 25.5123 4.84616 25.5367 4.75143C25.5632 4.68334 25.6094 4.62472 25.6694 4.58307C25.7295 4.54142 25.8006 4.51865 25.8736 4.51768H27.409C27.507 4.51823 27.6018 4.55178 27.6783 4.61291C27.7549 4.67403 27.8085 4.75917 27.8307 4.85456C27.8949 5.02643 27.9315 5.19143 27.9911 5.3656C28.1126 5.3656 28.1882 5.2831 28.2707 5.23497C28.9284 4.79514 29.6643 4.48552 30.4386 4.32289C31.0398 4.20098 31.6593 4.20098 32.2605 4.32289C32.8334 4.44664 33.3376 4.78581 33.6699 5.26935L33.7386 5.35643V5.38852C34.0411 5.20747 34.3596 5.01268 34.6896 4.84539C35.5399 4.40576 36.4902 4.19564 37.4465 4.23581C37.7659 4.22511 38.0843 4.27754 38.3834 4.39011C38.6826 4.50268 38.9565 4.67316 39.1896 4.8918C39.4228 5.11043 39.6104 5.37292 39.7419 5.66422C39.8734 5.95552 39.9461 6.2699 39.9559 6.58935V13.3818C39.9559 13.9273 39.8871 14.0006 39.3371 14.0006H37.8544C37.7583 14.0067 37.6618 14.0067 37.5657 14.0006C37.4935 13.9911 37.4262 13.9589 37.3734 13.9086C37.3207 13.8584 37.2853 13.7927 37.2724 13.721C37.253 13.5883 37.2453 13.4541 37.2494 13.32V7.68935C37.2575 7.46302 37.2321 7.23674 37.1738 7.01789C37.1236 6.83365 37.0171 6.66968 36.8692 6.54889C36.7213 6.4281 36.5394 6.35652 36.3488 6.34414C35.6292 6.29968 34.9102 6.43845 34.2588 6.74747C34.2129 6.76159 34.1733 6.79129 34.147 6.83146C34.1206 6.87162 34.1091 6.91973 34.1144 6.96747V13.3566C34.116 13.4755 34.1084 13.5942 34.0915 13.7118C34.0915 13.8723 33.9586 14.0029 33.7982 14.0029H31.9419C31.4905 14.0029 31.3919 13.8952 31.3919 13.446V7.68706C31.3966 7.47463 31.3766 7.26238 31.3324 7.05456C31.2911 6.85621 31.1853 6.67712 31.0315 6.54527C30.8776 6.41342 30.6845 6.33625 30.4821 6.32581C29.7498 6.28195 29.0183 6.42384 28.3555 6.73831C28.3066 6.75224 28.2651 6.78472 28.2399 6.82882C28.2146 6.87292 28.2076 6.92514 28.2203 6.97435V13.4666C28.2203 13.9135 28.1194 14.0075 27.6726 14.0075H26.0592C25.6284 14.0075 25.5207 13.886 25.5207 13.4758L25.5001 5.04247ZM31.7105 27.7758C31.656 27.7568 31.5985 27.7483 31.5409 27.7506C31.564 28.0013 31.6077 28.2496 31.6715 28.4931C31.8549 29.2654 32.4919 29.8452 33.2757 29.9506C34.1039 30.0919 34.9523 30.0631 35.769 29.8658C36.0342 29.8076 36.2978 29.7426 36.5596 29.671C36.9126 29.5862 37.0707 29.7237 37.0707 30.0606V30.9429C37.0947 31.0829 37.0624 31.2267 36.9809 31.3431C36.8993 31.4594 36.7751 31.5388 36.6353 31.5639C35.7986 31.8784 34.9142 32.0467 34.0205 32.0612C33.4071 32.0826 32.7936 32.0217 32.1963 31.8802C31.5412 31.7362 30.937 31.4185 30.4471 30.9604C29.9571 30.5023 29.5996 29.9208 29.4119 29.2769C28.9789 27.9571 28.9629 26.536 29.3661 25.2069C29.6161 24.2892 30.1674 23.4823 30.9313 22.9157C31.6952 22.3492 32.6275 22.056 33.5782 22.0833C34.1919 22.0586 34.8054 22.1368 35.3932 22.3148C36.4015 22.5966 37.1692 23.4148 37.3824 24.4414C37.4709 24.8855 37.4709 25.3426 37.3824 25.7866C37.3187 26.1328 37.1746 26.4592 36.9616 26.7394C36.7487 27.0197 36.4728 27.2459 36.1563 27.4C35.5205 27.7176 34.8246 27.8973 34.1144 27.9271C33.3053 27.9779 32.493 27.9263 31.6967 27.7735L31.7105 27.7758ZM24.5307 22.7296C24.5926 22.6448 24.5582 22.5577 24.5582 22.4729V18.5656C24.5582 18.1027 24.643 18.0202 25.1036 18.0202H26.7857C27.1546 18.0339 27.2601 18.121 27.2601 18.4969V31.2981C27.2601 31.635 27.1478 31.7587 26.8109 31.7587H25.2296C25.1312 31.7593 25.0355 31.7266 24.9581 31.6658C24.8807 31.6051 24.8262 31.5199 24.8034 31.4241C24.7772 31.2781 24.7333 31.1357 24.6728 31.0002C24.5628 31.0185 24.5146 31.1033 24.4276 31.1537C23.9129 31.5605 23.3044 31.8316 22.6577 31.9421C22.0111 32.0526 21.3471 31.999 20.7265 31.7862C20.267 31.6375 19.8431 31.3955 19.4815 31.0753C19.1198 30.7551 18.8283 30.3636 18.6251 29.9254C18.2215 29.122 18.0127 28.2349 18.0155 27.3358C17.9614 26.3804 18.1074 25.4243 18.444 24.5285C18.7673 23.5867 19.4469 22.8092 20.3369 22.3629C21.6019 21.7602 23.0869 21.8587 24.2626 22.6173C24.3409 22.6815 24.4324 22.7277 24.5307 22.7525V22.7296ZM22.7042 13.9823H21.0244C20.9674 13.9895 20.9096 13.9895 20.8526 13.9823C20.7671 13.9825 20.6847 13.9501 20.6221 13.8918C20.5595 13.8335 20.5215 13.7536 20.5157 13.6683V4.92102C20.5157 4.62997 20.6394 4.51768 20.9282 4.50852C21.5606 4.49542 22.1933 4.49542 22.8257 4.50852C23.1053 4.50852 23.1901 4.59331 23.2153 4.8706V13.281C23.2195 13.4159 23.2119 13.5508 23.1924 13.6843C23.1847 13.7578 23.1508 13.826 23.097 13.8765C23.0431 13.927 22.9728 13.9564 22.899 13.9593H22.6951L22.7042 13.9823ZM20.3094 1.49268C20.3273 1.11979 20.4921 0.769145 20.7678 0.517469C21.0435 0.265794 21.4077 0.133583 21.7807 0.149766H21.9274C22.1202 0.142855 22.3127 0.170803 22.4957 0.232266C22.8111 0.332051 23.08 0.54224 23.2531 0.824269C23.4261 1.1063 23.4916 1.44125 23.4376 1.76768C23.4115 2.07284 23.2825 2.3601 23.0719 2.58241C22.8612 2.80473 22.5813 2.94894 22.278 2.99143C22.009 3.03995 21.7334 3.03995 21.4644 2.99143C21.2893 2.96802 21.1204 2.91031 20.9676 2.82162C20.8147 2.73292 20.6808 2.61497 20.5735 2.47451C20.4663 2.33405 20.3877 2.17382 20.3424 2.003C20.2971 1.83217 20.2859 1.65409 20.3094 1.47893V1.49268ZM13.2236 13.4093V5.12727C13.2236 4.5681 13.2832 4.50852 13.8424 4.50852H15.0111C15.0739 4.49946 15.1378 4.5029 15.1993 4.51864C15.2607 4.53437 15.3184 4.5621 15.3691 4.60022C15.4198 4.63834 15.4624 4.68611 15.4946 4.74077C15.5268 4.79543 15.5478 4.8559 15.5565 4.91872C15.6413 5.22122 15.7169 5.52373 15.7857 5.85372C15.8709 5.83077 15.9449 5.77789 15.9942 5.70477C16.2151 5.4869 16.4468 5.28038 16.6886 5.08602C17.3161 4.59579 18.1036 4.35646 18.8978 4.41456C19.214 4.41456 19.324 4.52456 19.3492 4.82706C19.3721 5.23956 19.3492 5.6681 19.3492 6.07831C19.3587 6.24686 19.3494 6.41595 19.3217 6.58247C19.3211 6.67142 19.2854 6.75652 19.2223 6.8192C19.1591 6.88188 19.0738 6.91706 18.9849 6.91706C18.8169 6.92631 18.6486 6.92631 18.4807 6.91706C17.6812 6.86354 16.8795 6.9783 16.1271 7.25393C15.9576 7.31352 15.9576 7.43497 15.9576 7.57018V13.7073C15.9529 13.7823 15.9202 13.8528 15.8658 13.9046C15.8114 13.9565 15.7394 13.9858 15.6642 13.9868C15.5635 13.9935 15.4625 13.9935 15.3617 13.9868V14.0098H13.7805C13.6912 14.015 13.6017 14.015 13.5124 14.0098C13.4377 13.9981 13.3689 13.9622 13.3167 13.9075C13.2645 13.8528 13.2318 13.7824 13.2236 13.7073V13.4093ZM15.2953 20.8069C15.1496 20.8305 15.001 20.8305 14.8553 20.8069C14.7197 20.8035 14.5848 20.7882 14.4519 20.761C14.0992 20.687 13.7897 20.4773 13.5899 20.1773C13.3902 19.8773 13.3163 19.5108 13.384 19.1568C13.4125 18.8285 13.5606 18.522 13.8001 18.2956C14.0396 18.0691 14.3539 17.9385 14.6834 17.9285C14.7679 17.9191 14.8532 17.9191 14.9378 17.9285C15.1835 17.9088 15.4302 17.9514 15.6551 18.0523C16.1317 18.231 16.4571 18.6756 16.4824 19.1843C16.5124 19.3701 16.5056 19.5599 16.4621 19.7429C16.4187 19.926 16.3396 20.0987 16.2293 20.2511C16.1191 20.4035 15.9798 20.5327 15.8195 20.6312C15.6592 20.7297 15.4811 20.7956 15.2953 20.8252V20.8069ZM16.3036 22.7662V31.3921C16.3112 31.4807 16.2835 31.5688 16.2264 31.6371C16.1693 31.7054 16.0875 31.7483 15.9988 31.7564H13.9821C13.8941 31.7661 13.8058 31.7408 13.7364 31.6859C13.6669 31.631 13.6218 31.551 13.6109 31.4631V31.4035C13.6071 31.3272 13.6071 31.2507 13.6109 31.1744V22.7639C13.6109 22.3881 13.714 22.2827 14.0921 22.2827H15.8132C16.189 22.2987 16.2967 22.4064 16.2967 22.7823L16.3036 22.7662ZM12.3826 22.8739L11.6561 24.8081L9.2109 31.1652C9.18798 31.2385 9.14902 31.3096 9.12611 31.3829C9.08341 31.5074 9.00067 31.6143 8.8908 31.6869C8.78093 31.7595 8.65012 31.7936 8.51881 31.7839H6.91006C6.74879 31.8024 6.58626 31.7621 6.45236 31.6703C6.31847 31.5785 6.22222 31.4414 6.18131 31.2844C5.87652 30.4846 5.56256 29.671 5.25777 28.8666C4.52902 26.96 3.78881 25.0487 3.05777 23.1283C2.98792 22.9764 2.93489 22.8174 2.89965 22.6539C2.86298 22.4133 2.94777 22.2918 3.19298 22.2918H5.25777C5.55111 22.2918 5.68173 22.4866 5.75735 22.741C5.89027 23.2016 6.02548 23.676 6.16986 24.1389C6.66715 25.8187 7.15527 27.5283 7.65027 29.2196H7.67319L7.89319 28.5137L9.57298 22.8762L9.64402 22.6585C9.67744 22.5568 9.74325 22.4688 9.83139 22.4079C9.91953 22.3471 10.0252 22.3168 10.1321 22.3216H11.993C12.4513 22.3148 12.5499 22.4454 12.3963 22.8831L12.3826 22.8739ZM2.09298 4.75372C2.18758 4.6598 2.30248 4.58885 2.42883 4.54633C2.55517 4.50382 2.68959 4.49088 2.82173 4.50852H3.94006C4.06574 4.49288 4.19252 4.52741 4.29291 4.60463C4.39329 4.68185 4.45919 4.79553 4.47631 4.92102C4.49617 5.04324 4.52444 5.16546 4.5611 5.28768C4.5637 5.29777 4.56966 5.30667 4.57799 5.31291C4.58632 5.31916 4.59653 5.32239 4.60694 5.32206C4.70082 5.27579 4.78608 5.21378 4.85902 5.13872C5.36479 4.73878 5.95428 4.45812 6.58359 4.31766C7.21289 4.1772 7.86578 4.18055 8.4936 4.32747C9.59361 4.59102 10.4965 5.36789 10.9251 6.41289C11.1817 6.9923 11.3405 7.61027 11.3949 8.24164H11.3765C11.4934 9.25914 11.4017 10.2881 11.1061 11.2689C10.8769 12.0431 10.4412 12.7403 9.84569 13.2856C9.06652 13.9868 8.02381 14.3123 6.98569 14.1748C6.21729 14.0975 5.486 13.8061 4.87506 13.3337C4.78569 13.4093 4.82465 13.5033 4.82465 13.5927V17.0439C4.82465 17.7979 4.82465 17.7979 4.05923 17.7979H2.7484C2.62015 17.8211 2.48791 17.8061 2.36811 17.7548C2.24832 17.7035 2.14626 17.618 2.07465 17.5091L2.09298 4.75372ZM46.4826 39.6443C46.3842 39.8254 46.2463 39.9821 46.0792 40.1027C44.68 41.2034 43.1736 42.1608 41.583 42.9604C38.58 44.4798 35.3763 45.5646 32.068 46.1825C30.1675 46.5231 28.2454 46.7298 26.3159 46.8012V46.8516H24.8286V46.8104C24.1571 46.7783 23.504 46.7508 22.8394 46.7027C21.0677 46.5666 19.3089 46.297 17.5778 45.896C11.7077 44.5311 6.27927 41.7006 1.79965 37.6689C1.37569 37.2931 0.974646 36.9058 0.562146 36.5162C0.460905 36.4234 0.381804 36.3091 0.330688 36.1816C0.283403 36.074 0.280463 35.952 0.322503 35.8422C0.364544 35.7324 0.448178 35.6435 0.555271 35.595C0.663491 35.5522 0.783926 35.5522 0.892146 35.595C1.00148 35.6395 1.10721 35.6923 1.2084 35.7531C5.56884 38.4523 10.34 40.423 15.3342 41.5877C17.0073 41.9779 18.6992 42.2823 20.4034 42.4998C22.8451 42.8049 25.3072 42.9168 27.7665 42.8344C29.0883 42.79 30.4069 42.6783 31.7174 42.4998C34.7822 42.1064 37.8021 41.4188 40.7351 40.4464C42.2741 39.9383 43.7836 39.3446 45.2565 38.6681C45.4784 38.5447 45.7386 38.5095 45.9853 38.5696C46.1787 38.6183 46.3451 38.7415 46.4481 38.9124C46.5511 39.0832 46.5824 39.2878 46.5353 39.4816L46.4849 39.6329L46.4826 39.6443ZM48.8384 43.0544C48.4495 43.6939 47.9753 44.2775 47.429 44.7891C47.3221 44.9027 47.188 44.9871 47.0394 45.0343C46.9948 45.0525 46.9463 45.059 46.8985 45.0531C46.8507 45.0471 46.8052 45.0291 46.7663 45.0006C46.7275 44.9721 46.6966 44.9341 46.6766 44.8903C46.6566 44.8464 46.6482 44.7982 46.6521 44.7502C46.6638 44.623 46.6931 44.498 46.7392 44.3789C47.1632 43.2423 47.578 42.1102 47.908 40.9323C48.0987 40.2884 48.2366 39.63 48.3205 38.9637C48.3433 38.7213 48.3433 38.4774 48.3205 38.235C48.3179 38.0342 48.2511 37.8396 48.1299 37.6796C48.0086 37.5196 47.8393 37.4026 47.6467 37.3458C47.269 37.223 46.8769 37.1498 46.4803 37.1281C45.3636 37.0798 44.2449 37.1289 43.1367 37.2748L41.6678 37.4581C41.5074 37.4581 41.3653 37.4581 41.2782 37.3091C41.2423 37.2408 41.2262 37.1638 41.2319 37.0868C41.2376 37.0099 41.2647 36.936 41.3103 36.8737C41.4121 36.7388 41.538 36.6238 41.6815 36.5346C42.5817 35.9177 43.5925 35.4804 44.6584 35.2466C45.4868 35.082 46.3279 34.9892 47.1724 34.9693C47.9668 34.9724 48.7521 35.0648 49.5282 35.2466C49.7462 35.3036 49.958 35.3819 50.1607 35.4804C50.438 35.595 50.6328 35.8516 50.6626 36.1519C50.7129 36.4971 50.7237 36.8469 50.6946 37.1946C50.5376 39.2588 49.9055 41.2588 48.8476 43.0383L48.8384 43.0544ZM42.9946 29.946C43.2221 29.9884 43.4547 29.9962 43.6844 29.9689C43.9143 29.9469 44.1367 29.8755 44.3364 29.7596C44.5362 29.6437 44.7085 29.4861 44.8417 29.2975C44.9936 29.0832 45.1076 28.8445 45.1786 28.5916L45.158 28.6237C45.3078 28.1203 45.3652 27.5939 45.3276 27.07C45.3385 26.8463 45.3385 26.6222 45.3276 26.3985C45.3057 25.9227 45.1912 25.4556 44.9907 25.0235C44.8849 24.8044 44.73 24.6127 44.538 24.4632C44.346 24.3138 44.1222 24.2106 43.8838 24.1618C43.6561 24.1153 43.4221 24.1075 43.1917 24.1389C42.9402 24.1577 42.6966 24.2356 42.4808 24.3662C42.265 24.4968 42.083 24.6765 41.9496 24.8906C41.7955 25.1384 41.6818 25.4091 41.6128 25.6927C41.4654 26.3955 41.4329 27.1176 41.5165 27.8308C41.5544 28.2491 41.6686 28.6568 41.8534 29.0339C41.9547 29.2669 42.1114 29.4716 42.3099 29.6302C42.5085 29.7888 42.7427 29.8964 42.9924 29.9437L42.9946 29.946ZM34.9211 25.4543C34.9808 25.2988 35.0038 25.1316 34.9883 24.9657C34.9729 24.7998 34.9195 24.6397 34.8321 24.4979C34.7448 24.356 34.6259 24.2362 34.4848 24.1477C34.3436 24.0592 34.1839 24.0045 34.0182 23.9877C33.9586 23.9877 33.9105 23.9648 33.8509 23.9648C33.5199 23.9062 33.1791 23.9398 32.8659 24.0618C32.5526 24.1839 32.279 24.3897 32.0749 24.6569C31.81 25.0533 31.6442 25.5076 31.5913 25.9814C31.5569 26.0891 31.6142 26.1396 31.7242 26.1487C32.2115 26.2208 32.703 26.2614 33.1955 26.2702C33.4476 26.2839 33.6981 26.2641 33.9471 26.2106C34.1679 26.201 34.3801 26.1231 34.5546 25.9877C34.7291 25.8522 34.8572 25.6658 34.9211 25.4543ZM21.2146 24.87C21.1106 25.0584 21.0291 25.2584 20.9717 25.4658C20.7804 26.2115 20.7299 26.9864 20.8228 27.7506C20.8576 28.1775 20.9718 28.594 21.1596 28.9789C21.286 29.224 21.4709 29.434 21.698 29.5903C21.9251 29.7467 22.1873 29.8444 22.4613 29.875C23.1195 29.9705 23.7907 29.843 24.368 29.5129C24.4311 29.4833 24.4838 29.4353 24.519 29.3751C24.5542 29.315 24.5702 29.2455 24.5651 29.176V26.9623H24.5811C24.5811 26.2221 24.5582 25.4933 24.5811 24.7439C24.5891 24.6684 24.5718 24.5924 24.532 24.5277C24.4922 24.463 24.4321 24.4134 24.3611 24.3864C23.7775 24.1114 23.1317 23.9952 22.4888 24.0496C22.2242 24.0666 21.9683 24.1509 21.7453 24.2945C21.5223 24.438 21.3397 24.6361 21.2146 24.87ZM6.83444 12.1581C7.24683 12.1533 7.64376 12.0004 7.95277 11.7273C8.23561 11.4688 8.43036 11.1282 8.50965 10.7533C8.70244 10.0039 8.75297 9.22505 8.6586 8.45706C8.63359 8.02887 8.52866 7.60914 8.34923 7.21956C8.24696 6.98708 8.08694 6.78462 7.88439 6.6314C7.68184 6.47818 7.44347 6.3793 7.19194 6.34414C6.47969 6.21685 5.74535 6.32716 5.10194 6.6581C5.02607 6.68554 4.96137 6.73725 4.91787 6.80519C4.87436 6.87314 4.85448 6.95354 4.86131 7.03393V11.4271C4.85689 11.4976 4.87431 11.5678 4.91122 11.6281C4.94813 11.6884 5.00272 11.7358 5.06756 11.7639C5.60998 12.0525 6.22097 12.1872 6.83444 12.1535" fill="#1877F2"/>
</svg>
