<svg width="38" height="38" viewBox="0 0 38 38" fill="none" xmlns="http://www.w3.org/2000/svg">
<path d="M26.1251 10.6875H30.9891C31.2833 10.6878 31.5669 10.7973 31.7849 10.9947C32.003 11.1922 32.14 11.4635 32.1695 11.7562L32.8938 19H30.5046L29.9108 13.0625H26.1251V16.625C26.1251 16.9399 26 17.242 25.7773 17.4647C25.5546 17.6874 25.2525 17.8125 24.9376 17.8125C24.6226 17.8125 24.3206 17.6874 24.0979 17.4647C23.8752 17.242 23.7501 16.9399 23.7501 16.625V13.0625H14.2501V16.625C14.2501 16.9399 14.125 17.242 13.9023 17.4647C13.6796 17.6874 13.3775 17.8125 13.0626 17.8125C12.7476 17.8125 12.4456 17.6874 12.2229 17.4647C12.0002 17.242 11.8751 16.9399 11.8751 16.625V13.0625H8.08696L6.18696 32.0625H19.0001V34.4375H4.87358C4.70772 34.4373 4.54374 34.4024 4.39219 34.335C4.24064 34.2676 4.10489 34.1692 3.99369 34.0462C3.88249 33.9231 3.7983 33.7781 3.74654 33.6205C3.69479 33.463 3.67662 33.2963 3.69321 33.1313L5.83071 11.7562C5.86013 11.4635 5.99715 11.1922 6.21522 10.9947C6.4333 10.7973 6.7169 10.6878 7.01108 10.6875H11.8751V9.85862C11.8751 5.74038 15.0481 2.375 19.0001 2.375C22.9521 2.375 26.1251 5.74038 26.1251 9.85862V10.6899V10.6875ZM23.7501 10.6875V9.85862C23.7501 7.02287 21.6078 4.75 19.0001 4.75C16.3923 4.75 14.2501 7.02287 14.2501 9.85862V10.6899H23.7501V10.6875ZM31.2242 28.6425L28.5001 25.9207V34.4375C28.5001 34.7524 28.375 35.0545 28.1523 35.2772C27.9296 35.4999 27.6275 35.625 27.3126 35.625C26.9976 35.625 26.6956 35.4999 26.4729 35.2772C26.2502 35.0545 26.1251 34.7524 26.1251 34.4375V25.9207L23.4033 28.6425C23.2938 28.7559 23.1628 28.8464 23.0179 28.9086C22.873 28.9709 22.7172 29.0036 22.5595 29.005C22.4018 29.0064 22.2455 28.9763 22.0995 28.9166C21.9536 28.8569 21.821 28.7687 21.7095 28.6572C21.598 28.5457 21.5098 28.4131 21.4501 28.2672C21.3904 28.1213 21.3604 27.9649 21.3617 27.8072C21.3631 27.6495 21.3959 27.4937 21.4581 27.3488C21.5203 27.204 21.6108 27.0729 21.7242 26.9634L26.4742 22.2134C26.6969 21.9908 26.9989 21.8657 27.3138 21.8657C27.6287 21.8657 27.9306 21.9908 28.1533 22.2134L32.9033 26.9634C33.0168 27.0729 33.1072 27.204 33.1695 27.3488C33.2317 27.4937 33.2644 27.6495 33.2658 27.8072C33.2672 27.9649 33.2371 28.1213 33.1774 28.2672C33.1177 28.4131 33.0295 28.5457 32.9181 28.6572C32.8066 28.7687 32.674 28.8569 32.528 28.9166C32.3821 28.9763 32.2257 29.0064 32.068 29.005C31.9104 29.0036 31.7545 28.9709 31.6097 28.9086C31.4648 28.8464 31.3338 28.7559 31.2242 28.6425Z" fill="#17223B"/>
</svg>
