<svg width="75" height="84" viewBox="0 0 75 84" fill="none" xmlns="http://www.w3.org/2000/svg">
<g clip-path="url(#clip0_475_1909)">
<path d="M54.9534 30.246C60.3636 34.1115 66.9915 36.3859 74.1497 36.3859V22.6185C72.7949 22.6191 71.4437 22.4777 70.1183 22.1968V33.0337C62.9606 33.0337 56.3336 30.7596 50.9223 26.8944V54.9898C50.9223 69.0447 39.5226 80.4375 25.4616 80.4375C20.2151 80.4375 15.3384 78.8522 11.2876 76.1332C15.9111 80.8583 22.3588 83.7894 29.4919 83.7894C43.554 83.7894 54.954 72.3966 54.954 58.3411V30.246H54.9534ZM59.9268 16.3565C57.1617 13.3374 55.3462 9.43577 54.9534 5.12222V3.35156H51.1332C52.0948 8.83386 55.3752 13.5176 59.9268 16.3565ZM20.1812 65.3482C18.6363 63.324 17.8012 60.8472 17.8051 58.3009C17.8051 51.8728 23.0192 46.6608 29.4522 46.6608C30.6508 46.6601 31.8424 46.8441 32.9851 47.2062V33.131C31.6498 32.9482 30.3023 32.8703 28.9554 32.899V43.8543C27.8122 43.4921 26.62 43.3083 25.4207 43.3092C18.9881 43.3092 13.7743 48.5207 13.7743 54.9496C13.7743 59.4954 16.3803 63.4309 20.1812 65.3482Z" fill="#FF004F"/>
<path d="M50.9223 26.8942C56.334 30.7593 62.9604 33.0334 70.1184 33.0334V22.1965C66.1229 21.3458 62.5859 19.2591 59.9266 16.3565C55.3746 13.5173 52.0949 8.83358 51.1332 3.35156H41.0987V58.3406C41.0758 64.7512 35.8707 69.9419 29.4517 69.9419C25.6694 69.9419 22.3088 68.1399 20.1807 65.3479C16.3804 63.431 13.7741 59.4952 13.7741 54.9499C13.7741 48.5216 18.9879 43.3095 25.4205 43.3095C26.653 43.3095 27.8409 43.5013 28.9552 43.8546V32.8993C15.141 33.1846 4.03125 44.4661 4.03125 58.3409C4.03125 65.2671 6.79775 71.546 11.288 76.1338C15.3388 78.8522 20.2151 80.4381 25.462 80.4381C39.5233 80.4381 50.9226 69.0445 50.9226 54.9899L50.9223 26.8942Z" fill="black"/>
<path d="M70.1183 22.1963V19.2667C66.5153 19.2719 62.9835 18.2635 59.9265 16.3565C62.6325 19.3174 66.1956 21.3593 70.1183 22.1969M51.1329 3.35131C51.0413 2.82749 50.9709 2.30017 50.922 1.77066V0H37.0666V54.9896C37.0446 61.3996 31.8395 66.5903 25.4202 66.5903C23.6003 66.593 21.8054 66.1676 20.1803 65.3485C22.3084 68.1399 25.669 69.9416 29.4513 69.9416C35.87 69.9416 41.0757 64.7515 41.0983 58.3409V3.3516L51.1329 3.35131ZM28.9557 32.899V29.7797C27.7979 29.6217 26.6307 29.5425 25.4622 29.5428C11.3994 29.5428 0 40.9361 0 54.9896C0 63.8006 4.4801 71.5657 11.2882 76.1332C6.79792 71.5457 4.03142 65.2665 4.03142 58.3406C4.03142 44.4661 15.1409 33.1843 28.9557 32.899Z" fill="#00F2EA"/>
</g>
<defs>
<clipPath id="clip0_475_1909">
<rect width="74.1517" height="84" fill="white"/>
</clipPath>
</defs>
</svg>
