<svg width="195" height="57" viewBox="0 0 195 57" fill="none" xmlns="http://www.w3.org/2000/svg">
<g clip-path="url(#clip0_475_1694)">
<path d="M37.1807 20.4643C40.8412 23.0794 45.3256 24.6184 50.1687 24.6184V15.3035C49.2521 15.3035 48.3379 15.208 47.4411 15.0185V22.3506C42.5983 22.3506 38.1147 20.8116 34.453 18.1964V37.2059C34.453 46.7154 26.7406 54.4237 17.2269 54.4237C13.6773 54.4237 10.3778 53.351 7.63721 51.5114C10.765 54.7083 15.1278 56.6916 19.9538 56.6916C29.4682 56.6916 37.1811 48.9833 37.1811 39.4738V20.4639M40.546 11.0665C38.6214 8.97026 37.439 6.29969 37.1807 3.46572V2.26758H34.5959C35.2465 5.97714 37.4657 9.14596 40.5456 11.0669M13.6545 44.2139C12.6093 42.8443 12.0444 41.1685 12.0471 39.4456C12.0471 35.0965 15.5746 31.5701 19.9272 31.5701C20.7381 31.5701 21.5444 31.694 22.3174 31.9391V22.4163C21.414 22.2929 20.5024 22.2403 19.5909 22.259V29.6717C18.8174 29.4267 18.0109 29.3022 17.1995 29.3027C12.847 29.3027 9.31947 32.8287 9.31947 37.1786C9.31947 40.2539 11.0827 42.9166 13.6545 44.2139Z" fill="#FF004F"/>
<path d="M34.4529 18.1964C38.1145 20.8116 42.5982 22.3502 47.4413 22.3502V15.0181C44.7874 14.451 42.3766 13.0697 40.5454 11.0669C37.4655 9.14596 35.2463 5.97676 34.5957 2.26758H27.8067V39.4726C27.7915 43.8099 24.2693 47.3219 19.9266 47.3219C17.3673 47.3219 15.0934 46.1025 13.6536 44.2139C11.0825 42.9166 9.31891 40.2539 9.31891 37.1786C9.31891 32.8291 12.8465 29.3027 17.199 29.3027C18.0327 29.3027 18.8368 29.4326 19.5903 29.6717V22.2594C10.2438 22.4524 2.72705 30.0855 2.72705 39.473C2.72705 44.1592 4.59893 48.4072 7.63703 51.5114C10.4725 53.4151 13.8118 54.4291 17.2271 54.4233C26.7408 54.4233 34.4532 46.7147 34.4532 37.2055L34.4529 18.1964Z" fill="black"/>
<path d="M47.4411 15.0176V13.0351C45.0035 13.0386 42.614 12.3563 40.5456 11.0664C42.3764 13.0697 44.7871 14.4508 47.4411 15.0176ZM34.596 2.26784C34.5339 1.91348 34.4862 1.55675 34.4531 1.19852V0H25.0789V37.2054C25.0637 41.542 21.5426 45.0539 17.1992 45.0539C15.9679 45.0559 14.7534 44.7682 13.6538 44.2141C15.094 46.1027 17.3675 47.3218 19.9268 47.3218C24.2691 47.3218 27.7917 43.8102 27.8069 39.4729V2.26746L34.596 2.26784ZM19.5909 22.2596V20.1491C18.8076 20.0423 18.0179 19.9887 17.2273 19.9888C7.71286 19.988 0 27.6967 0 37.2054C0 43.1665 3.03126 48.4204 7.63762 51.5109C4.59952 48.4071 2.72764 44.1587 2.72764 39.4725C2.72764 30.0854 10.244 22.4527 19.5909 22.2596Z" fill="#00F2EA"/>
<path d="M156.062 46.6278C162.869 46.6278 168.388 41.1539 168.388 34.4017C168.388 27.6495 162.869 22.1748 156.062 22.1748H154.204C161.012 22.1748 166.531 27.6498 166.531 34.4017C166.531 41.1535 161.012 46.6278 154.204 46.6278H156.062Z" fill="#FF004F"/>
<path d="M154.036 22.1748H152.179C145.372 22.1748 139.852 27.6498 139.852 34.4017C139.852 41.1535 145.372 46.6278 152.179 46.6278H154.036C147.228 46.6278 141.709 41.1539 141.709 34.4017C141.709 27.6495 147.228 22.1748 154.036 22.1748Z" fill="#00F2EA"/>
<path d="M101.356 16.6488V30.5481L108.446 23.5143H117.057L108.108 32.2239L118.07 46.6274H110.473L103.551 36.7451L101.356 38.7565V46.4602H94.2636V16.6488H101.356ZM177.843 16.6488V30.5481L184.935 23.5143H193.546L184.597 32.2239L194.56 46.6282H186.962L180.038 36.7459L177.843 38.7572V46.461H170.75V16.6488H177.843ZM154.204 22.1748C161.011 22.1748 166.531 27.6498 166.531 34.4017C166.531 41.1535 161.011 46.6278 154.204 46.6278H154.036C147.228 46.6278 141.709 41.1539 141.709 34.4017C141.709 27.6494 147.228 22.1748 154.036 22.1748H154.204ZM82.783 16.6488L80.7565 23.0134H74.8475V46.4606H67.5853V22.8462H60.3262V16.6484L82.783 16.6488ZM142.217 16.6488L140.191 23.0134H134.282V46.4606H127.02V22.8462H119.761V16.6484L142.217 16.6488ZM91.2236 26.1956V46.461H84.1343V26.1956H91.2236ZM154.121 28.4569C150.811 28.4569 148.126 31.1173 148.126 34.4017C148.126 37.686 150.811 40.3475 154.121 40.3483C157.43 40.3483 160.115 37.686 160.115 34.4017C160.115 31.1173 157.43 28.4569 154.121 28.4569ZM87.6774 16.6488C89.6371 16.6488 91.2236 18.2239 91.2236 20.1657C91.2236 22.1075 89.6382 23.6826 87.6774 23.6826C85.7193 23.6819 84.1343 22.1079 84.1343 20.1657C84.1343 18.2239 85.7193 16.6488 87.6774 16.6488Z" fill="black"/>
</g>
<defs>
<clipPath id="clip0_475_1694">
<rect width="194.56" height="57" fill="white"/>
</clipPath>
</defs>
</svg>
