<svg width="38" height="38" viewBox="0 0 38 38" fill="none" xmlns="http://www.w3.org/2000/svg">
<path d="M19 33.25C17.0324 33.25 15.1821 32.8753 13.4488 32.1258C11.7156 31.3753 10.2078 30.3588 8.92525 29.0763C7.64169 27.7928 6.62519 26.2844 5.87575 24.5512C5.12525 22.8179 4.75 20.9676 4.75 19C4.75 17.0324 5.12472 15.1821 5.87417 13.4488C6.62361 11.7156 7.64064 10.2078 8.92525 8.92525C10.2099 7.64275 11.7177 6.62572 13.4488 5.87417C15.1831 5.12472 17.0335 4.75 19 4.75C19.4644 4.75 19.921 4.76794 20.3696 4.80383C20.8193 4.83867 21.2626 4.92206 21.6996 5.054L21.1708 6.52808C20.8034 6.44364 20.4493 6.38506 20.1083 6.35233C19.7674 6.31961 19.4133 6.30325 19.0459 6.30325C18.1065 7.36936 17.3269 8.52942 16.7073 9.78342C16.0888 11.0374 15.5906 12.3437 15.2127 13.7022H21.3133V15.2855H14.8532C14.7329 15.8946 14.6485 16.5084 14.5999 17.1269C14.5492 17.7465 14.5239 18.3709 14.5239 19C14.5239 19.6291 14.5487 20.2535 14.5983 20.8731C14.6479 21.4927 14.7324 22.1065 14.8517 22.7145H23.1483C23.2676 22.1054 23.3521 21.5117 23.4017 20.9333C23.4513 20.3548 23.4761 19.8729 23.4761 19.4877H25.0594C25.0594 19.8729 25.0346 20.3548 24.985 20.9333C24.9354 21.5117 24.8509 22.1054 24.7317 22.7145H31.1188C31.312 22.1054 31.4513 21.5117 31.5368 20.9333C31.6223 20.3548 31.6656 19.8729 31.6667 19.4877H33.25C33.25 21.2504 32.8753 22.9636 32.1258 24.6272C31.3753 26.2897 30.3588 27.7569 29.0763 29.0288C27.7928 30.3029 26.2844 31.3247 24.5512 32.0942C22.8179 32.8637 20.9676 33.2489 19 33.25ZM6.88117 22.7145H13.2699C13.1496 22.1054 13.0651 21.4916 13.0166 20.8731C12.9659 20.2535 12.9406 19.6291 12.9406 19C12.9406 18.3709 12.9654 17.7465 13.015 17.1269C13.0646 16.5073 13.1491 15.8935 13.2683 15.2855H6.88275C6.69064 15.8946 6.55131 16.5084 6.46475 17.1269C6.37819 17.7455 6.33439 18.3698 6.33333 19C6.33228 19.6302 6.37556 20.2545 6.46317 20.8731C6.55078 21.4916 6.69011 22.1054 6.88117 22.7145ZM16.967 31.502C16.112 30.4728 15.4116 29.3513 14.8659 28.1374C14.3202 26.9235 13.8916 25.6437 13.5802 24.2978H7.51767C8.40433 26.2263 9.67733 27.8281 11.3367 29.1033C12.9939 30.3773 14.8707 31.1769 16.967 31.502ZM7.52717 13.7022H13.5802C13.9317 12.3827 14.3856 11.1145 14.9419 9.89742C15.4982 8.68036 16.1732 7.54722 16.967 6.498C14.8854 6.8305 13.0134 7.63589 11.3509 8.91417C9.68842 10.1914 8.41383 11.7874 7.52717 13.7022ZM19 31.6603C19.8687 30.5541 20.625 29.3904 21.2689 28.1691C21.9128 26.9478 22.4195 25.6574 22.7889 24.2978H15.2111C15.5805 25.6563 16.0819 26.9568 16.7153 28.1992C17.3486 29.4416 18.1102 30.5953 19 31.6603ZM21.0346 31.502C23.1351 31.2033 25.013 30.41 26.6681 29.1222C28.3232 27.8345 29.5946 26.2263 30.4823 24.2978H24.4198C24.0081 25.5972 23.5389 26.8607 23.0122 28.0883C22.4865 29.3149 21.8284 30.4528 21.0346 31.502ZM25.8875 16.321C25.5181 16.321 25.1908 16.1785 24.9058 15.8935C24.6208 15.6085 24.4794 15.2818 24.4815 14.9134V10.5418C24.4815 10.1724 24.6235 9.84517 24.9074 9.56017C25.1914 9.27517 25.5181 9.13319 25.8875 9.13425H26.0933V7.55092C26.0933 6.76136 26.363 6.09742 26.9024 5.55908C27.4418 5.01969 28.1063 4.75 28.8958 4.75C29.6854 4.75 30.3499 5.01917 30.8893 5.5575C31.4286 6.09583 31.6978 6.76083 31.6967 7.5525V9.13583H31.9042C32.2736 9.13583 32.5903 9.27781 32.8542 9.56175C33.1181 9.84569 33.25 10.1724 33.25 10.5418V14.9134C33.25 15.2829 33.1075 15.6101 32.8225 15.8951C32.5375 16.1801 32.2113 16.3221 31.844 16.321H25.8875ZM27.3125 9.13425H30.4792V7.55092C30.4792 7.10231 30.3272 6.72653 30.0232 6.42358C29.7192 6.12064 29.3434 5.96864 28.8958 5.96758C28.4483 5.96653 28.0725 6.11853 27.7685 6.42358C27.4645 6.72864 27.3125 7.10442 27.3125 7.55092V9.13425Z" fill="#17223B"/>
</svg>
