<svg width="77" height="54" viewBox="0 0 77 54" fill="none" xmlns="http://www.w3.org/2000/svg">
<g clip-path="url(#clip0_475_1874)">
<path d="M75.1039 8.4225C74.6634 6.79457 73.8041 5.31043 72.6116 4.11789C71.4191 2.92534 69.935 2.06598 68.3071 1.6254C62.3473 0 38.3611 0 38.3611 0C38.3611 0 14.3737 0.0491999 8.41386 1.6746C6.78591 2.11521 5.30179 2.97461 4.10929 4.16721C2.91679 5.35982 2.05752 6.84401 1.61706 8.472C-0.185642 19.0614 -0.884943 35.1972 1.66656 45.363C2.10707 46.9909 2.96636 48.4751 4.15885 49.6676C5.35135 50.8602 6.83544 51.7195 8.46336 52.1601C14.4232 53.7855 38.41 53.7855 38.41 53.7855C38.41 53.7855 62.3965 53.7855 68.356 52.1601C69.9839 51.7196 71.4681 50.8602 72.6607 49.6677C73.8532 48.4751 74.7125 46.991 75.1531 45.363C77.0545 34.7586 77.6404 18.6327 75.1039 8.4225Z" fill="#FF0000"/>
<path d="M30.7261 38.418L50.6245 26.8926L30.7261 15.3672V38.418Z" fill="white"/>
</g>
<defs>
<clipPath id="clip0_475_1874">
<rect width="76.8" height="54" fill="white"/>
</clipPath>
</defs>
</svg>
